<svg width="150" height="36" viewBox="0 0 150 36" fill="none" xmlns="http://www.w3.org/2000/svg">
<path fill-rule="evenodd" clip-rule="evenodd" d="M49.6068 16.7457C49.6068 16.7457 48.7802 17.2649 47.0593 17.1351C45.9937 17.0545 44.5479 16.2629 44.5479 14.4822C44.5479 13.1211 45.7665 12.2261 47.0593 12.1941C49.0541 12.1468 49.9155 13.2324 50.0089 14.4626C50.124 15.9775 49.6068 16.7457 49.6068 16.7457ZM47.1277 8.92188C43.3902 8.92188 40.791 11.6313 40.791 14.6163C40.791 17.3258 43.0379 19.7603 46.0672 19.7603C47.5603 19.7603 48.6738 19.0056 48.6738 19.0056C47.5622 20.6663 45.3956 22.1087 44.2796 23.1439C44.0431 23.3647 43.8333 23.6095 43.7344 23.9127C43.7344 23.9127 43.7344 23.9127 43.7344 23.9133C43.6846 24.0616 43.6504 24.2147 43.6504 24.3765C43.6504 25.2782 44.4539 26.0089 45.446 26.0089C45.9041 26.0089 46.3167 25.8471 46.6354 25.59C46.6541 25.579 46.6771 25.563 46.7033 25.5427C49.2371 23.7251 53.7894 19.8753 53.7894 14.6163C53.7894 11.5624 51.0116 8.92188 47.1277 8.92188V8.92188Z" fill="#373A3C"/>
<path fill-rule="evenodd" clip-rule="evenodd" d="M49.6068 16.7457C49.6068 16.7457 48.7802 17.2649 47.0593 17.1351C45.9937 17.0545 44.5479 16.2629 44.5479 14.4822C44.5479 13.1211 45.7665 12.2261 47.0593 12.1941C49.0541 12.1468 49.9155 13.2324 50.0089 14.4626C50.124 15.9775 49.6068 16.7457 49.6068 16.7457ZM47.1277 8.92188C43.3902 8.92188 40.791 11.6313 40.791 14.6163C40.791 17.3258 43.0379 19.7603 46.0672 19.7603C47.5603 19.7603 48.6738 19.0056 48.6738 19.0056C47.5622 20.6663 45.3956 22.1087 44.2796 23.1439C44.0431 23.3647 43.8333 23.6095 43.7344 23.9127C43.7344 23.9127 43.7344 23.9127 43.7344 23.9133C43.6846 24.0616 43.6504 24.2147 43.6504 24.3765C43.6504 25.2782 44.4539 26.0089 45.446 26.0089C45.9041 26.0089 46.3167 25.8471 46.6354 25.59C46.6541 25.579 46.6771 25.563 46.7033 25.5427C49.2371 23.7251 53.7894 19.8753 53.7894 14.6163C53.7894 11.5624 51.0116 8.92188 47.1277 8.92188V8.92188Z" fill="black"/>
<path fill-rule="evenodd" clip-rule="evenodd" d="M23.881 17.0921H23.8817H23.881ZM16.4663 12.6444L16.7675 12.5398C16.8852 12.4998 17.0003 12.4759 17.1597 12.442L17.2344 12.4248C17.2897 12.4125 17.347 12.399 17.3999 12.3928C17.4373 12.3897 17.4808 12.3836 17.5549 12.3633C17.708 12.3442 17.8624 12.3338 18.0005 12.3258L18.5383 12.3276L18.6304 12.3325C18.7729 12.3393 18.9161 12.3448 19.0754 12.3701L19.1402 12.3817C19.1937 12.3848 19.2491 12.3928 19.3138 12.4088C19.4924 12.4439 19.6698 12.4882 19.8348 12.5343C19.8752 12.5478 19.9169 12.5607 19.9592 12.573L20.2406 12.6733C20.3688 12.7213 20.4958 12.7785 20.6227 12.8381C20.7702 12.9064 20.9265 12.9913 21.1474 13.126C21.2171 13.1697 21.2875 13.214 21.3547 13.2632L21.44 13.3222C21.4854 13.3542 21.5308 13.3862 21.5694 13.4157L21.8346 13.6316C22.1663 13.9213 22.4483 14.2276 22.6916 14.5678L22.8012 14.7258C22.8572 14.8113 22.9138 14.8968 22.9729 14.9965C22.9972 15.0481 23.0227 15.0961 23.0464 15.1349C23.1155 15.2653 23.1839 15.4024 23.2431 15.531C23.2785 15.6171 23.3134 15.7007 23.3433 15.7819C23.3582 15.8299 23.375 15.8791 23.4061 15.964C23.4167 15.9966 23.4279 16.0304 23.431 16.0341C23.4472 16.0956 23.4634 16.151 23.4808 16.21L23.4989 16.2795C23.507 16.314 23.5144 16.3423 23.5188 16.346L23.6408 17.0139C23.6408 17.0318 23.642 17.0927 23.6501 17.1167L23.6582 17.2151C23.6619 17.2717 23.6663 17.3289 23.6707 17.3596C23.6707 17.3848 23.6713 17.4168 23.6725 17.4543C23.6763 17.5226 23.6775 17.5878 23.6738 17.6622C23.6738 17.7361 23.6731 17.8013 23.6707 17.8929L23.6619 17.9427C23.6551 18.0331 23.6483 18.1223 23.6395 18.2029C23.6352 18.2318 23.6321 18.2607 23.629 18.2884L23.6246 18.3339C23.619 18.3628 23.6153 18.388 23.6134 18.4188L23.6016 18.4649C23.5879 18.5609 23.5686 18.6581 23.5468 18.7639L23.5319 18.8143C23.5269 18.8414 23.5207 18.8666 23.5107 18.8961L23.4889 18.9859C23.4646 19.0776 23.4397 19.168 23.4167 19.2418L23.3595 19.3931C23.3053 19.5475 23.2375 19.7105 23.1385 19.9135L15.5582 32.9446C15.1294 33.6889 15.3902 34.6429 16.1408 35.0728C16.3879 35.2124 16.6549 35.2832 16.9344 35.2819C17.4958 35.2783 18.0186 34.9787 18.298 34.4989L24.7798 23.3628L26.1721 31.1061C26.3115 31.8559 26.9688 32.399 27.7337 32.3947C27.8277 32.3941 27.9217 32.3837 28.0032 32.3664C28.4196 32.2945 28.7819 32.0657 29.0234 31.7225C29.2648 31.3817 29.3563 30.9677 29.2823 30.5593L27.003 17.9089L33.107 22.9575C33.753 23.4834 34.7974 23.3936 35.3314 22.7545C35.6022 22.4359 35.7304 22.0312 35.6924 21.6172C35.6551 21.2027 35.4553 20.8262 35.1323 20.5618L25.1588 12.3172L33.1238 12.3067C33.9889 12.3024 34.6935 11.6006 34.6947 10.7432C34.6929 9.8845 33.9827 9.18577 33.1107 9.18392L20.1117 9.20422L26.2032 4.13716C26.8661 3.57743 26.9483 2.59207 26.3881 1.94131C26.0875 1.58763 25.6437 1.38466 25.1725 1.38712C24.8053 1.38958 24.448 1.51813 24.1661 1.75125L14.2213 10.0254L15.5906 2.27837C15.6628 1.86996 15.5688 1.45662 15.3254 1.11525C15.0821 0.773263 14.7192 0.546297 14.3034 0.475563C13.4327 0.322407 12.6248 0.907967 12.4754 1.74264L10.2447 14.4017L6.25199 7.59824C5.97066 7.11417 5.44348 6.81585 4.8746 6.81831C4.5995 6.82016 4.32875 6.89397 4.09099 7.0299C3.34286 7.45615 3.08518 8.41138 3.51775 9.15994L10.0381 20.2751L2.55551 17.5983C2.38062 17.5362 2.19701 17.5042 2.01153 17.5048C1.35053 17.5085 0.755513 17.9243 0.531447 18.5387C0.387671 18.933 0.407588 19.3574 0.588708 19.7351C0.767339 20.109 1.08414 20.3926 1.47875 20.5298L13.709 24.911L6.23269 27.6118C5.83622 27.7521 5.52066 28.0393 5.34265 28.4158C5.16464 28.794 5.14659 29.2178 5.29099 29.6072C5.51879 30.2247 6.11879 30.6387 6.7829 30.6356C6.95406 30.6344 7.13207 30.603 7.31817 30.5427L18.2364 26.5927L20.6856 22.3873L19.8018 22.7016C19.7103 22.7342 19.6126 22.7564 19.5148 22.7791L19.3916 22.7964L19.3736 22.8056C19.3549 22.8099 19.3356 22.8136 19.3163 22.8173C19.2864 22.8246 19.2559 22.8308 19.2254 22.8351L19.1339 22.8536C19.1128 22.8579 19.0972 22.8591 19.0599 22.8628C18.8613 22.8917 18.659 22.9077 18.4138 22.9194H18.2974C18.0678 22.9206 17.8256 22.9021 17.535 22.8597L17.4099 22.8376C17.3819 22.8326 17.3545 22.829 17.3171 22.821C17.1721 22.7933 17.0339 22.7588 16.8814 22.7176C16.8534 22.7115 16.8211 22.7004 16.798 22.6924L16.2553 22.5023L16.203 22.4808C16.0916 22.4353 15.9802 22.3892 15.8731 22.3307L15.7381 22.2643C15.7082 22.2526 15.6777 22.2354 15.636 22.2089C15.4319 22.0921 15.2414 21.9666 15.0298 21.8091L14.8406 21.6566L14.8362 21.6591C14.8269 21.6474 14.7995 21.616 14.7765 21.6012C14.7335 21.5631 14.6887 21.5219 14.6756 21.5176C14.6501 21.4887 14.6265 21.4672 14.6128 21.4555L14.5754 21.4186C14.5449 21.3897 14.5144 21.362 14.4839 21.33C14.4173 21.2636 14.3483 21.1916 14.2854 21.1166L14.24 21.0649C14.1752 20.9942 14.1229 20.9271 14.0682 20.8564L14.0377 20.8182C14.0258 20.8029 14.0122 20.7838 14.0184 20.7973C13.9586 20.7112 13.8989 20.6233 13.8472 20.5427L13.5422 20.0266C13.4837 19.9171 13.4252 19.8083 13.3835 19.7068L13.3244 19.5727C13.3113 19.5481 13.302 19.5253 13.2933 19.5013L13.2777 19.4472C13.2435 19.3611 13.2099 19.2633 13.1819 19.1624L13.1439 19.045L13.142 19.0437C13.1352 19.0185 13.1283 18.9933 13.1221 18.9662L13.1097 18.9195C13.1022 18.882 13.0929 18.8463 13.0835 18.8094C13.0742 18.7712 13.0642 18.7337 13.0518 18.6679C13.0368 18.599 13.0213 18.5246 13.0132 18.4791C13.0132 18.4563 13.0095 18.4286 13.002 18.3893C12.9945 18.3431 12.9889 18.297 12.9802 18.2207L12.9727 18.134C12.9659 18.0559 12.959 17.9747 12.9547 17.8954L12.9441 17.733C12.9435 17.6143 12.9429 17.4906 12.9522 17.367L12.964 17.1886C12.9696 17.1394 12.9752 17.0896 12.9746 17.0675L13.1041 16.3177L13.1178 16.2709C13.1302 16.2291 13.1433 16.1854 13.1483 16.1602C13.1763 16.0741 13.2036 15.9849 13.2124 15.932L13.2416 15.8736C13.302 15.6946 13.3792 15.5144 13.4837 15.3052L13.5124 15.2474C13.5373 15.1951 13.5622 15.1447 13.6014 15.0807C13.6873 14.9159 13.7893 14.7615 13.9138 14.5794C13.9742 14.4976 14.0339 14.4146 14.1267 14.3045L14.1615 14.2639C14.1877 14.2301 14.2163 14.1987 14.2462 14.1667L14.2935 14.1132C14.4105 13.9804 14.5456 13.8469 14.6657 13.7325L15.0597 13.4022C15.0827 13.3868 15.1039 13.3708 15.1331 13.348C15.1717 13.3185 15.2097 13.2939 15.2694 13.2558C15.3012 13.2318 15.3404 13.2078 15.3796 13.182L15.4238 13.1543C15.4748 13.1198 15.5283 13.0872 15.5825 13.0553L15.7095 12.9833C15.7636 12.9544 15.8209 12.923 15.8738 12.8984L15.9217 12.8726C15.9559 12.8541 15.9877 12.8363 16.0443 12.8123C16.1582 12.7619 16.2696 12.7127 16.4009 12.6622L16.4663 12.6444V12.6444Z" fill="#00BF99"/>
<path fill-rule="evenodd" clip-rule="evenodd" d="M23.881 17.0921H23.8817H23.881ZM16.4663 12.6444L16.7675 12.5398C16.8852 12.4998 17.0003 12.4759 17.1597 12.442L17.2344 12.4248C17.2897 12.4125 17.347 12.399 17.3999 12.3928C17.4373 12.3897 17.4808 12.3836 17.5549 12.3633C17.708 12.3442 17.8624 12.3338 18.0005 12.3258L18.5383 12.3276L18.6304 12.3325C18.7729 12.3393 18.9161 12.3448 19.0754 12.3701L19.1402 12.3817C19.1937 12.3848 19.2491 12.3928 19.3138 12.4088C19.4924 12.4439 19.6698 12.4882 19.8348 12.5343C19.8752 12.5478 19.9169 12.5607 19.9592 12.573L20.2406 12.6733C20.3688 12.7213 20.4958 12.7785 20.6227 12.8381C20.7702 12.9064 20.9265 12.9913 21.1474 13.126C21.2171 13.1697 21.2875 13.214 21.3547 13.2632L21.44 13.3222C21.4854 13.3542 21.5308 13.3862 21.5694 13.4157L21.8346 13.6316C22.1663 13.9213 22.4483 14.2276 22.6916 14.5678L22.8012 14.7258C22.8572 14.8113 22.9138 14.8968 22.9729 14.9965C22.9972 15.0481 23.0227 15.0961 23.0464 15.1349C23.1155 15.2653 23.1839 15.4024 23.2431 15.531C23.2785 15.6171 23.3134 15.7007 23.3433 15.7819C23.3582 15.8299 23.375 15.8791 23.4061 15.964C23.4167 15.9966 23.4279 16.0304 23.431 16.0341C23.4472 16.0956 23.4634 16.151 23.4808 16.21L23.4989 16.2795C23.507 16.314 23.5144 16.3423 23.5188 16.346L23.6408 17.0139C23.6408 17.0318 23.642 17.0927 23.6501 17.1167L23.6582 17.2151C23.6619 17.2717 23.6663 17.3289 23.6707 17.3596C23.6707 17.3848 23.6713 17.4168 23.6725 17.4543C23.6763 17.5226 23.6775 17.5878 23.6738 17.6622C23.6738 17.7361 23.6731 17.8013 23.6707 17.8929L23.6619 17.9427C23.6551 18.0331 23.6483 18.1223 23.6395 18.2029C23.6352 18.2318 23.6321 18.2607 23.629 18.2884L23.6246 18.3339C23.619 18.3628 23.6153 18.388 23.6134 18.4188L23.6016 18.4649C23.5879 18.5609 23.5686 18.6581 23.5468 18.7639L23.5319 18.8143C23.5269 18.8414 23.5207 18.8666 23.5107 18.8961L23.4889 18.9859C23.4646 19.0776 23.4397 19.168 23.4167 19.2418L23.3595 19.3931C23.3053 19.5475 23.2375 19.7105 23.1385 19.9135L15.5582 32.9446C15.1294 33.6889 15.3902 34.6429 16.1408 35.0728C16.3879 35.2124 16.6549 35.2832 16.9344 35.2819C17.4958 35.2783 18.0186 34.9787 18.298 34.4989L24.7798 23.3628L26.1721 31.1061C26.3115 31.8559 26.9688 32.399 27.7337 32.3947C27.8277 32.3941 27.9217 32.3837 28.0032 32.3664C28.4196 32.2945 28.7819 32.0657 29.0234 31.7225C29.2648 31.3817 29.3563 30.9677 29.2823 30.5593L27.003 17.9089L33.107 22.9575C33.753 23.4834 34.7974 23.3936 35.3314 22.7545C35.6022 22.4359 35.7304 22.0312 35.6924 21.6172C35.6551 21.2027 35.4553 20.8262 35.1323 20.5618L25.1588 12.3172L33.1238 12.3067C33.9889 12.3024 34.6935 11.6006 34.6947 10.7432C34.6929 9.8845 33.9827 9.18577 33.1107 9.18392L20.1117 9.20422L26.2032 4.13716C26.8661 3.57743 26.9483 2.59207 26.3881 1.94131C26.0875 1.58763 25.6437 1.38466 25.1725 1.38712C24.8053 1.38958 24.448 1.51813 24.1661 1.75125L14.2213 10.0254L15.5906 2.27837C15.6628 1.86996 15.5688 1.45662 15.3254 1.11525C15.0821 0.773263 14.7192 0.546297 14.3034 0.475563C13.4327 0.322407 12.6248 0.907967 12.4754 1.74264L10.2447 14.4017L6.25199 7.59824C5.97066 7.11417 5.44348 6.81585 4.8746 6.81831C4.5995 6.82016 4.32875 6.89397 4.09099 7.0299C3.34286 7.45615 3.08518 8.41138 3.51775 9.15994L10.0381 20.2751L2.55551 17.5983C2.38062 17.5362 2.19701 17.5042 2.01153 17.5048C1.35053 17.5085 0.755513 17.9243 0.531447 18.5387C0.387671 18.933 0.407588 19.3574 0.588708 19.7351C0.767339 20.109 1.08414 20.3926 1.47875 20.5298L13.709 24.911L6.23269 27.6118C5.83622 27.7521 5.52066 28.0393 5.34265 28.4158C5.16464 28.794 5.14659 29.2178 5.29099 29.6072C5.51879 30.2247 6.11879 30.6387 6.7829 30.6356C6.95406 30.6344 7.13207 30.603 7.31817 30.5427L18.2364 26.5927L20.6856 22.3873L19.8018 22.7016C19.7103 22.7342 19.6126 22.7564 19.5148 22.7791L19.3916 22.7964L19.3736 22.8056C19.3549 22.8099 19.3356 22.8136 19.3163 22.8173C19.2864 22.8246 19.2559 22.8308 19.2254 22.8351L19.1339 22.8536C19.1128 22.8579 19.0972 22.8591 19.0599 22.8628C18.8613 22.8917 18.659 22.9077 18.4138 22.9194H18.2974C18.0678 22.9206 17.8256 22.9021 17.535 22.8597L17.4099 22.8376C17.3819 22.8326 17.3545 22.829 17.3171 22.821C17.1721 22.7933 17.0339 22.7588 16.8814 22.7176C16.8534 22.7115 16.8211 22.7004 16.798 22.6924L16.2553 22.5023L16.203 22.4808C16.0916 22.4353 15.9802 22.3892 15.8731 22.3307L15.7381 22.2643C15.7082 22.2526 15.6777 22.2354 15.636 22.2089C15.4319 22.0921 15.2414 21.9666 15.0298 21.8091L14.8406 21.6566L14.8362 21.6591C14.8269 21.6474 14.7995 21.616 14.7765 21.6012C14.7335 21.5631 14.6887 21.5219 14.6756 21.5176C14.6501 21.4887 14.6265 21.4672 14.6128 21.4555L14.5754 21.4186C14.5449 21.3897 14.5144 21.362 14.4839 21.33C14.4173 21.2636 14.3483 21.1916 14.2854 21.1166L14.24 21.0649C14.1752 20.9942 14.1229 20.9271 14.0682 20.8564L14.0377 20.8182C14.0258 20.8029 14.0122 20.7838 14.0184 20.7973C13.9586 20.7112 13.8989 20.6233 13.8472 20.5427L13.5422 20.0266C13.4837 19.9171 13.4252 19.8083 13.3835 19.7068L13.3244 19.5727C13.3113 19.5481 13.302 19.5253 13.2933 19.5013L13.2777 19.4472C13.2435 19.3611 13.2099 19.2633 13.1819 19.1624L13.1439 19.045L13.142 19.0437C13.1352 19.0185 13.1283 18.9933 13.1221 18.9662L13.1097 18.9195C13.1022 18.882 13.0929 18.8463 13.0835 18.8094C13.0742 18.7712 13.0642 18.7337 13.0518 18.6679C13.0368 18.599 13.0213 18.5246 13.0132 18.4791C13.0132 18.4563 13.0095 18.4286 13.002 18.3893C12.9945 18.3431 12.9889 18.297 12.9802 18.2207L12.9727 18.134C12.9659 18.0559 12.959 17.9747 12.9547 17.8954L12.9441 17.733C12.9435 17.6143 12.9429 17.4906 12.9522 17.367L12.964 17.1886C12.9696 17.1394 12.9752 17.0896 12.9746 17.0675L13.1041 16.3177L13.1178 16.2709C13.1302 16.2291 13.1433 16.1854 13.1483 16.1602C13.1763 16.0741 13.2036 15.9849 13.2124 15.932L13.2416 15.8736C13.302 15.6946 13.3792 15.5144 13.4837 15.3052L13.5124 15.2474C13.5373 15.1951 13.5622 15.1447 13.6014 15.0807C13.6873 14.9159 13.7893 14.7615 13.9138 14.5794C13.9742 14.4976 14.0339 14.4146 14.1267 14.3045L14.1615 14.2639C14.1877 14.2301 14.2163 14.1987 14.2462 14.1667L14.2935 14.1132C14.4105 13.9804 14.5456 13.8469 14.6657 13.7325L15.0597 13.4022C15.0827 13.3868 15.1039 13.3708 15.1331 13.348C15.1717 13.3185 15.2097 13.2939 15.2694 13.2558C15.3012 13.2318 15.3404 13.2078 15.3796 13.182L15.4238 13.1543C15.4748 13.1198 15.5283 13.0872 15.5825 13.0553L15.7095 12.9833C15.7636 12.9544 15.8209 12.923 15.8738 12.8984L15.9217 12.8726C15.9559 12.8541 15.9877 12.8363 16.0443 12.8123C16.1582 12.7619 16.2696 12.7127 16.4009 12.6622L16.4663 12.6444V12.6444Z" fill="black"/>
<path fill-rule="evenodd" clip-rule="evenodd" d="M57.3823 24.0103C56.9833 23.7236 56.6914 23.1996 56.6914 22.6325C56.6914 21.6822 57.4588 20.9441 58.4236 20.9441C58.9028 20.9441 59.2408 21.1114 59.4823 21.2737C60.7539 22.205 62.1443 22.7739 63.78 22.7739C65.2881 22.7739 66.2061 22.1767 66.2061 21.2055V21.1575C66.2061 20.23 65.6273 19.76 62.8153 19.0465C59.4294 18.1959 57.2435 17.2646 57.2435 13.9647V13.9216C57.2435 10.9028 59.6983 8.90625 63.1302 8.90625C65.1736 8.90625 66.9518 9.42907 68.4624 10.3843C68.8731 10.618 69.279 11.1162 69.279 11.8322C69.279 12.7788 68.5084 13.5169 67.5468 13.5169C67.1877 13.5169 66.902 13.416 66.6175 13.2555C65.3895 12.5414 64.2331 12.1367 63.0829 12.1367C61.6601 12.1367 60.9207 12.7788 60.9207 13.5877V13.6295C60.9207 14.7237 61.6402 15.0805 64.5449 15.8149C67.9582 16.6932 69.8839 17.908 69.8839 20.8075V20.8543C69.8839 24.153 67.3321 26.0031 63.7072 26.0031C61.4995 26.0031 59.2601 25.3364 57.3823 24.0103" fill="#373A3C"/>
<path fill-rule="evenodd" clip-rule="evenodd" d="M57.3823 24.0103C56.9833 23.7236 56.6914 23.1996 56.6914 22.6325C56.6914 21.6822 57.4588 20.9441 58.4236 20.9441C58.9028 20.9441 59.2408 21.1114 59.4823 21.2737C60.7539 22.205 62.1443 22.7739 63.78 22.7739C65.2881 22.7739 66.2061 22.1767 66.2061 21.2055V21.1575C66.2061 20.23 65.6273 19.76 62.8153 19.0465C59.4294 18.1959 57.2435 17.2646 57.2435 13.9647V13.9216C57.2435 10.9028 59.6983 8.90625 63.1302 8.90625C65.1736 8.90625 66.9518 9.42907 68.4624 10.3843C68.8731 10.618 69.279 11.1162 69.279 11.8322C69.279 12.7788 68.5084 13.5169 67.5468 13.5169C67.1877 13.5169 66.902 13.416 66.6175 13.2555C65.3895 12.5414 64.2331 12.1367 63.0829 12.1367C61.6601 12.1367 60.9207 12.7788 60.9207 13.5877V13.6295C60.9207 14.7237 61.6402 15.0805 64.5449 15.8149C67.9582 16.6932 69.8839 17.908 69.8839 20.8075V20.8543C69.8839 24.153 67.3321 26.0031 63.7072 26.0031C61.4995 26.0031 59.2601 25.3364 57.3823 24.0103" fill="black"/>
<path fill-rule="evenodd" clip-rule="evenodd" d="M78.5039 17.5244C80.3574 17.5244 81.4348 16.4308 81.4348 15.0118V14.9663C81.4348 13.321 80.279 12.4445 78.4367 12.4445H75.5749V17.5244H78.5039ZM71.874 10.9738C71.874 9.94968 72.6869 9.14453 73.7244 9.14453H78.7429C82.7587 9.14453 85.1817 11.4942 85.1817 14.8931V14.9399C85.1817 18.7817 82.1599 20.7727 78.385 20.7727H75.5749V24.0788C75.5749 25.0992 74.7564 25.9031 73.7244 25.9031C72.6869 25.9031 71.874 25.0992 71.874 24.0788V10.9738V10.9738Z" fill="#373A3C"/>
<path fill-rule="evenodd" clip-rule="evenodd" d="M78.5039 17.5244C80.3574 17.5244 81.4348 16.4308 81.4348 15.0118V14.9663C81.4348 13.321 80.279 12.4445 78.4367 12.4445H75.5749V17.5244H78.5039ZM71.874 10.9738C71.874 9.94968 72.6869 9.14453 73.7244 9.14453H78.7429C82.7587 9.14453 85.1817 11.4942 85.1817 14.8931V14.9399C85.1817 18.7817 82.1599 20.7727 78.385 20.7727H75.5749V24.0788C75.5749 25.0992 74.7564 25.9031 73.7244 25.9031C72.6869 25.9031 71.874 25.0992 71.874 24.0788V10.9738V10.9738Z" fill="black"/>
<path fill-rule="evenodd" clip-rule="evenodd" d="M100.577 17.4982V17.4589C100.577 14.6067 98.465 12.2319 95.4818 12.2319C92.5092 12.2319 90.4347 14.5594 90.4347 17.4115V17.4589C90.4347 20.3061 92.5516 22.6785 95.5354 22.6785C98.513 22.6785 100.577 20.3559 100.577 17.4982ZM86.5684 17.4982V17.4589C86.5684 12.7313 90.3476 8.85938 95.5354 8.85938C100.723 8.85938 104.443 12.6766 104.443 17.4115V17.4589C104.443 22.1772 100.673 26.0504 95.4818 26.0504C90.2935 26.0504 86.5684 22.2313 86.5684 17.4982V17.4982Z" fill="#373A3C"/>
<path fill-rule="evenodd" clip-rule="evenodd" d="M100.577 17.4982V17.4589C100.577 14.6067 98.465 12.2319 95.4818 12.2319C92.5092 12.2319 90.4347 14.5594 90.4347 17.4115V17.4589C90.4347 20.3061 92.5516 22.6785 95.5354 22.6785C98.513 22.6785 100.577 20.3559 100.577 17.4982ZM86.5684 17.4982V17.4589C86.5684 12.7313 90.3476 8.85938 95.5354 8.85938C100.723 8.85938 104.443 12.6766 104.443 17.4115V17.4589C104.443 22.1772 100.673 26.0504 95.4818 26.0504C90.2935 26.0504 86.5684 22.2313 86.5684 17.4982V17.4982Z" fill="black"/>
<path fill-rule="evenodd" clip-rule="evenodd" d="M106.288 10.8299C106.288 9.80453 107.11 9 108.139 9C109.17 9 109.995 9.80453 109.995 10.8299V16.4081L116.812 9.71411C117.278 9.27002 117.729 9 118.375 9C119.409 9 120.081 9.78177 120.081 10.6804C120.081 11.2586 119.815 11.6885 119.409 12.0631L114.674 16.4302L119.843 22.84C120.13 23.1986 120.346 23.58 120.346 24.1268C120.346 25.1478 119.552 25.9025 118.471 25.9025C117.75 25.9025 117.317 25.5544 116.909 25.0297L112.101 18.8112L109.995 20.753V24.0782C109.995 25.0986 109.17 25.9025 108.139 25.9025C107.11 25.9025 106.288 25.0986 106.288 24.0782V10.8299" fill="#373A3C"/>
<path fill-rule="evenodd" clip-rule="evenodd" d="M106.288 10.8299C106.288 9.80453 107.11 9 108.139 9C109.17 9 109.995 9.80453 109.995 10.8299V16.4081L116.812 9.71411C117.278 9.27002 117.729 9 118.375 9C119.409 9 120.081 9.78177 120.081 10.6804C120.081 11.2586 119.815 11.6885 119.409 12.0631L114.674 16.4302L119.843 22.84C120.13 23.1986 120.346 23.58 120.346 24.1268C120.346 25.1478 119.552 25.9025 118.471 25.9025C117.75 25.9025 117.317 25.5544 116.909 25.0297L112.101 18.8112L109.995 20.753V24.0782C109.995 25.0986 109.17 25.9025 108.139 25.9025C107.11 25.9025 106.288 25.0986 106.288 24.0782V10.8299" fill="black"/>
<path fill-rule="evenodd" clip-rule="evenodd" d="M122.352 23.9355V10.9738C122.352 9.94968 123.167 9.14453 124.203 9.14453H133.529C134.442 9.14453 135.187 9.88079 135.187 10.78C135.187 11.6891 134.442 12.4014 133.529 12.4014H126.033V15.7714H132.446C133.364 15.7714 134.104 16.5065 134.104 17.4106C134.104 18.3142 133.364 19.0179 132.446 19.0179H126.033V22.5109H133.654C134.569 22.5109 135.314 23.2472 135.314 24.1526C135.314 25.0518 134.569 25.7623 133.654 25.7623H124.203C123.167 25.7623 122.352 24.9627 122.352 23.9355" fill="#373A3C"/>
<path fill-rule="evenodd" clip-rule="evenodd" d="M122.352 23.9355V10.9738C122.352 9.94968 123.167 9.14453 124.203 9.14453H133.529C134.442 9.14453 135.187 9.88079 135.187 10.78C135.187 11.6891 134.442 12.4014 133.529 12.4014H126.033V15.7714H132.446C133.364 15.7714 134.104 16.5065 134.104 17.4106C134.104 18.3142 133.364 19.0179 132.446 19.0179H126.033V22.5109H133.654C134.569 22.5109 135.314 23.2472 135.314 24.1526C135.314 25.0518 134.569 25.7623 133.654 25.7623H124.203C123.167 25.7623 122.352 24.9627 122.352 23.9355" fill="black"/>
<path fill-rule="evenodd" clip-rule="evenodd" d="M137.387 24.0103C136.981 23.7236 136.7 23.1996 136.7 22.6325C136.7 21.6822 137.466 20.9441 138.426 20.9441C138.91 20.9441 139.243 21.1114 139.484 21.2737C140.755 22.205 142.148 22.7739 143.789 22.7739C145.294 22.7739 146.212 22.1767 146.212 21.2055V21.1575C146.212 20.23 145.634 19.76 142.829 19.0465C139.432 18.1959 137.248 17.2646 137.248 13.9647V13.9216C137.248 10.9028 139.699 8.90625 143.137 8.90625C145.179 8.90625 146.957 9.42907 148.471 10.3843C148.881 10.618 149.284 11.1162 149.284 11.8322C149.284 12.7788 148.516 13.5169 147.556 13.5169C147.198 13.5169 146.905 13.416 146.618 13.2555C145.396 12.5414 144.244 12.1367 143.094 12.1367C141.669 12.1367 140.924 12.7788 140.924 13.5877V13.6295C140.924 14.7237 141.647 15.0805 144.551 15.8149C147.968 16.6932 149.882 17.908 149.882 20.8075V20.8543C149.882 24.153 147.341 26.0031 143.709 26.0031C141.496 26.0031 139.262 25.3364 137.387 24.0103" fill="#373A3C"/>
<path fill-rule="evenodd" clip-rule="evenodd" d="M137.387 24.0103C136.981 23.7236 136.7 23.1996 136.7 22.6325C136.7 21.6822 137.466 20.9441 138.426 20.9441C138.91 20.9441 139.243 21.1114 139.484 21.2737C140.755 22.205 142.148 22.7739 143.789 22.7739C145.294 22.7739 146.212 22.1767 146.212 21.2055V21.1575C146.212 20.23 145.634 19.76 142.829 19.0465C139.432 18.1959 137.248 17.2646 137.248 13.9647V13.9216C137.248 10.9028 139.699 8.90625 143.137 8.90625C145.179 8.90625 146.957 9.42907 148.471 10.3843C148.881 10.618 149.284 11.1162 149.284 11.8322C149.284 12.7788 148.516 13.5169 147.556 13.5169C147.198 13.5169 146.905 13.416 146.618 13.2555C145.396 12.5414 144.244 12.1367 143.094 12.1367C141.669 12.1367 140.924 12.7788 140.924 13.5877V13.6295C140.924 14.7237 141.647 15.0805 144.551 15.8149C147.968 16.6932 149.882 17.908 149.882 20.8075V20.8543C149.882 24.153 147.341 26.0031 143.709 26.0031C141.496 26.0031 139.262 25.3364 137.387 24.0103" fill="black"/>
</svg>
