<svg width="178" height="22" viewBox="0 0 178 22" fill="none" xmlns="http://www.w3.org/2000/svg">
<path fill-rule="evenodd" clip-rule="evenodd" d="M74.8691 17.9248H78.1621V13.1924C78.1621 11.2563 78.4224 10.5038 79.2021 10.5038C79.9815 10.5038 80.2418 11.2563 80.2418 12.4398V17.9248H83.5345V13.1924C83.5345 11.2563 83.7953 10.5038 84.5745 10.5038C85.2675 10.5038 85.6152 11.1489 85.6152 12.2248V17.9248H88.9072V11.3641C88.9072 8.67549 87.9546 7.27706 85.6152 7.27706C84.4878 7.27706 83.7086 7.70764 83.1008 8.5679L82.9285 8.78308C82.3223 7.81501 81.7149 7.16992 80.4157 7.16992C79.2883 7.16992 78.5084 7.59937 77.9887 8.46009L77.4694 7.49292H74.8691V17.9248" fill="black"/>
<path fill-rule="evenodd" clip-rule="evenodd" d="M66.7352 12.74L67.753 8.95648L68.8561 12.74H66.7352ZM69.4627 3.22656H65.9844L61.9111 17.9249H65.4741L65.9844 15.8713H69.7176L70.2263 17.9249H73.7895L69.4627 3.22656V3.22656Z" fill="black"/>
<path fill-rule="evenodd" clip-rule="evenodd" d="M5.97455 14.4875H3.7851V12.2569H6.05855C6.73169 12.2569 7.06883 12.5757 7.06883 13.4256C7.06883 14.3821 6.81614 14.4875 5.97455 14.4875ZM3.7822 7.12365H5.63429C6.39211 7.12365 6.56034 7.44198 6.56034 8.29138C6.56034 9.14213 6.30766 9.14213 5.55007 9.14213H3.7822V7.12365ZM9.09181 10.5966L8.75535 10.2776C9.42894 9.53443 9.8494 9.00358 9.8494 7.40947C9.8494 4.96663 8.67112 3.58594 6.31411 3.58594H0V17.9258H5.55629C8.67112 17.9258 10.4385 17.0759 10.4385 13.8895C10.4385 12.615 10.0176 11.5529 9.09181 10.5966V10.5966Z" fill="black"/>
<path fill-rule="evenodd" clip-rule="evenodd" d="M30.9561 17.9258H34.2492V13.5049L36.5887 17.9258H40.3147L37.0222 11.6719L40.0549 7.46748H36.242L34.2492 10.2712V3.58594H30.9561V17.9258" fill="black"/>
<path fill-rule="evenodd" clip-rule="evenodd" d="M21.2373 17.9248H24.433V13.2403C24.433 11.3223 24.9383 10.4711 25.7789 10.4711C26.704 10.4711 27.0397 11.3223 27.0397 12.5998V17.9248H30.236V12.0686C30.236 8.98026 29.2268 7.16992 27.0397 7.16992C26.1145 7.16992 25.4421 7.48947 24.7694 8.34139L24.6013 8.5533L24.2649 7.59621H21.2373V17.9248" fill="black"/>
<path fill-rule="evenodd" clip-rule="evenodd" d="M47.7768 15.5219C46.4322 15.5219 46.4185 13.6819 46.4185 12.7415C46.4185 11.3219 46.7285 10.1231 47.7768 10.1231C48.7051 10.1231 49.0363 10.9367 49.0503 12.6309C49.0676 14.7834 48.5927 15.5219 47.7768 15.5219ZM47.608 7.16992C44.9762 7.16992 43.1934 9.60483 43.1934 12.8856C43.1934 16.1673 44.9762 18.2833 47.8622 18.2833C50.8333 18.2833 52.1921 16.1673 52.1921 13.0972C52.1921 9.28721 50.5787 7.16992 47.608 7.16992V7.16992Z" fill="black"/>
<path fill-rule="evenodd" clip-rule="evenodd" d="M94.2068 10.1043C94.9854 10.1043 95.4187 10.7503 95.5055 11.6122H92.8228C92.9962 10.6432 93.4288 10.1043 94.2068 10.1043ZM94.2998 15.7865C93.5207 15.7865 93.0883 15.248 92.9156 14.0635H98.6257C98.6257 9.97035 97.2411 7.16992 94.213 7.16992C91.4442 7.16992 89.627 9.43186 89.627 12.9865C89.627 16.3789 91.4442 18.6418 94.3859 18.6418C96.8084 18.6418 97.847 17.1871 98.6257 14.8172H95.7699C95.6842 15.3566 95.1641 15.7865 94.2998 15.7865V15.7865Z" fill="black"/>
<path fill-rule="evenodd" clip-rule="evenodd" d="M16.4382 14.5329C16.4382 15.1743 15.7666 15.8148 15.264 15.8148C14.7602 15.8148 14.5087 15.3876 14.5087 14.9602C14.5087 14.3197 15.0122 13.5721 16.4382 13.3574V14.5329ZM15.6873 7.16992C12.9194 7.16992 11.6611 8.66585 11.6611 11.1239H14.345C14.345 10.4827 14.7648 9.73373 15.6873 9.73373C16.1071 9.73373 16.4421 10.1616 16.4421 10.6961C16.4421 12.5129 11.1582 10.6961 11.1582 15.1841C11.1582 17.1083 12.1646 18.2833 13.8419 18.2833C15.1001 18.2833 16.023 17.7495 16.5261 17.1083L17.0287 17.7495H19.797V12.2991C19.797 8.87943 18.9584 7.16992 15.6873 7.16992V7.16992Z" fill="black"/>
<path fill-rule="evenodd" clip-rule="evenodd" d="M125.44 14.593C125.44 15.2406 124.756 15.8873 124.243 15.8873C123.729 15.8873 123.473 15.456 123.473 15.0245C123.473 14.3778 123.986 13.623 125.44 13.4062V14.593ZM124.758 7.16992C122.02 7.16992 120.566 8.57122 120.566 11.1614H123.303C123.303 10.5149 123.646 9.75893 124.672 9.75893C125.099 9.75893 125.441 10.1907 125.441 10.7301C125.441 12.5649 120.224 10.7301 120.224 15.2616C120.224 17.2033 121.251 18.2833 122.961 18.2833C124.158 18.2833 125.099 17.8511 125.527 17.2033L126.041 17.8511H128.862V12.3486C128.862 9.0034 128.093 7.16992 124.758 7.16992V7.16992Z" fill="black"/>
<path fill-rule="evenodd" clip-rule="evenodd" d="M116.566 13.5815C116.479 14.97 116.22 15.2921 115.357 15.2921C114.147 15.2921 113.715 14.2224 113.715 12.8332C113.715 11.1239 113.975 10.0558 115.183 10.0558C115.962 10.0558 116.047 10.1616 116.566 11.3375H119.158C118.985 8.66585 118.034 7.16992 115.183 7.16992C112.506 7.16992 110.864 9.09345 110.864 12.4051C110.864 16.0388 112.333 18.2833 115.27 18.2833C117.516 18.2833 119.244 16.894 119.416 14.3298L119.503 13.5815H116.566" fill="black"/>
<path fill-rule="evenodd" clip-rule="evenodd" d="M99.7051 17.9257H102.979V14.3189C102.979 11.6667 103.584 10.9245 105.479 10.7121H105.824V7.5293C104.704 7.5293 103.842 7.5293 102.894 8.80298L102.377 7.6352H99.7051V17.9257" fill="black"/>
<path fill-rule="evenodd" clip-rule="evenodd" d="M53.2715 10.1143H54.3561V17.9258H57.5285V10.1143H58.8636V7.54607H57.5285C57.5285 6.47603 57.6951 6.36786 58.0292 6.36786H59.0307V3.58594H56.8606C55.4411 3.58594 54.5231 3.90776 54.5231 6.15421V7.54607H53.2715V10.1143" fill="black"/>
<path fill-rule="evenodd" clip-rule="evenodd" d="M106.546 17.9257H109.785V7.5293H106.546V17.9257Z" fill="black"/>
<path fill-rule="evenodd" clip-rule="evenodd" d="M106.546 6.4539H109.785V3.58594H106.546V6.4539Z" fill="black"/>
<path fill-rule="evenodd" clip-rule="evenodd" d="M149.739 4.62304C148.12 5.31299 141.054 8.48549 138.414 10.0389C137.273 9.59432 136.306 9.26939 134.981 8.77123C140.468 5.54901 146.433 3.71999 146.536 3.58594C147.654 3.8813 148.604 4.34532 149.739 4.62304" fill="black"/>
<path fill-rule="evenodd" clip-rule="evenodd" d="M155.138 6.8986C153.51 7.5822 146.356 11.0073 143.701 12.5469C142.463 11.9321 141.255 11.3175 140.021 10.8235C145.538 7.63013 151.262 5.50936 151.365 5.37695C152.427 5.78643 154.019 6.48866 155.138 6.8986" fill="black"/>
<mask id="mask0_4415_20974" style="mask-type:luminance" maskUnits="userSpaceOnUse" x="143" y="3" width="35" height="19">
<path fill-rule="evenodd" clip-rule="evenodd" d="M143.995 3.71289H177.394V21.497H143.995V3.71289Z" fill="white"/>
</mask>
<g mask="url(#mask0_4415_20974)">
<path fill-rule="evenodd" clip-rule="evenodd" d="M172.171 5.75178C170.55 6.43473 159.386 10.0338 148.813 17.0373C147.474 16.2203 145.315 14.976 143.995 14.5485C149.488 11.3581 156.764 6.54886 167.856 3.71289C169.529 4.44372 170.675 5.07926 172.171 5.75178" fill="black"/>
<path fill-rule="evenodd" clip-rule="evenodd" d="M177.394 8.67548C175.773 9.35844 162.224 15.8093 155.651 21.5107C154.447 20.8092 151.836 18.8502 150.617 18.2015C155.885 14.8155 162.576 9.90367 173.551 6.59961C175.223 7.33044 176.045 7.88611 177.394 8.67548" fill="black"/>
</g>
<path fill-rule="evenodd" clip-rule="evenodd" d="M150.061 1.43359C152.918 2.36948 157.092 3.82492 159.818 5.22208C158.953 5.69578 157.784 6.01633 156.741 6.45253C149.804 3.53351 146.991 2.67579 146.859 2.57323C147.48 2.30532 149.526 1.61273 150.061 1.43359" fill="black"/>
<path fill-rule="evenodd" clip-rule="evenodd" d="M154.909 0C157.768 0.962091 162.131 2.24418 164.857 3.6807C163.929 3.92012 162.589 4.2032 161.524 4.66044C154.585 1.65968 152.03 0.881046 151.898 0.775618C152.519 0.499971 154.374 0.184151 154.909 0" fill="black"/>
</svg>
