<svg width="92" height="58" viewBox="0 0 92 58" fill="none" xmlns="http://www.w3.org/2000/svg">
<path fill-rule="evenodd" clip-rule="evenodd" d="M57.9799 27.0668C57.461 25.8303 56.6714 24.6838 55.6336 23.6385C54.4718 22.4807 53.1633 21.6377 51.7195 21.1206C50.7832 20.7834 49.8019 20.5924 48.7528 20.5362C48.5385 20.5249 48.3242 20.5137 48.0986 20.5137C45.177 20.5137 42.639 21.559 40.5635 23.6272C38.4992 25.6842 37.4502 28.2133 37.4502 31.1245C37.4502 34.047 38.4992 36.5761 40.5635 38.6331C40.6537 38.723 40.7327 38.8017 40.8229 38.8803C41.59 39.5997 42.4247 40.1842 43.3158 40.6338C44.7597 41.3644 46.3614 41.7354 48.0986 41.7354C49.6552 41.7354 51.0991 41.4319 52.4188 40.8474C53.3325 40.4427 54.1898 39.9032 54.9794 39.2175C55.1937 39.0265 55.4193 38.8354 55.6224 38.6218C57.6979 36.5536 58.7469 34.0245 58.7469 31.1133C58.7582 29.6745 58.4988 28.3032 57.9799 27.0668ZM53.4792 36.5086C52.0015 37.9811 50.1967 38.723 48.0986 38.723C46.0005 38.723 44.1957 37.9811 42.718 36.5086C41.2403 35.0362 40.4958 33.2377 40.4958 31.147C40.4958 30.0904 40.6763 29.1013 41.0485 28.2358C41.4095 27.359 41.9735 26.5497 42.7293 25.7966C43.4737 25.0548 44.2972 24.4927 45.177 24.1218C46.0569 23.7509 47.0382 23.571 48.1098 23.571C50.1967 23.571 52.0015 24.3241 53.4904 25.7966C54.9681 27.2691 55.7126 29.0675 55.7126 31.147C55.7126 33.2377 54.9568 35.0362 53.4792 36.5086Z" fill="#00A2E0"/>
<path fill-rule="evenodd" clip-rule="evenodd" d="M57.9799 27.0668C57.461 25.8303 56.6714 24.6838 55.6336 23.6385C54.4718 22.4807 53.1633 21.6377 51.7195 21.1206C50.7832 20.7834 49.8019 20.5924 48.7528 20.5362C48.5385 20.5249 48.3242 20.5137 48.0986 20.5137C45.177 20.5137 42.639 21.559 40.5635 23.6272C38.4992 25.6842 37.4502 28.2133 37.4502 31.1245C37.4502 34.047 38.4992 36.5761 40.5635 38.6331C40.6537 38.723 40.7327 38.8017 40.8229 38.8803C41.59 39.5997 42.4247 40.1842 43.3158 40.6338C44.7597 41.3644 46.3614 41.7354 48.0986 41.7354C49.6552 41.7354 51.0991 41.4319 52.4188 40.8474C53.3325 40.4427 54.1898 39.9032 54.9794 39.2175C55.1937 39.0265 55.4193 38.8354 55.6224 38.6218C57.6979 36.5536 58.7469 34.0245 58.7469 31.1133C58.7582 29.6745 58.4988 28.3032 57.9799 27.0668ZM53.4792 36.5086C52.0015 37.9811 50.1967 38.723 48.0986 38.723C46.0005 38.723 44.1957 37.9811 42.718 36.5086C41.2403 35.0362 40.4958 33.2377 40.4958 31.147C40.4958 30.0904 40.6763 29.1013 41.0485 28.2358C41.4095 27.359 41.9735 26.5497 42.7293 25.7966C43.4737 25.0548 44.2972 24.4927 45.177 24.1218C46.0569 23.7509 47.0382 23.571 48.1098 23.571C50.1967 23.571 52.0015 24.3241 53.4904 25.7966C54.9681 27.2691 55.7126 29.0675 55.7126 31.147C55.7126 33.2377 54.9568 35.0362 53.4792 36.5086Z" fill="black"/>
<path d="M72.2266 28.8543C71.5837 28.2249 70.8392 27.7303 69.9932 27.3706C69.1472 27.0109 68.2561 26.8198 67.3198 26.8198C65.8083 26.8198 64.4547 27.2357 63.3154 28.0563C63.2703 27.764 63.1236 27.4943 62.898 27.2582C62.6047 26.966 62.2551 26.8086 61.8377 26.8086C61.4203 26.8086 61.0594 26.9547 60.7661 27.2582C60.4728 27.5505 60.3262 27.9101 60.3262 28.3148V40.2408C60.3262 40.6567 60.4728 41.0163 60.7661 41.3086C61.0594 41.6008 61.4203 41.747 61.8377 41.747C62.2438 41.747 62.6047 41.6008 62.898 41.3086C63.1913 41.0163 63.3379 40.6567 63.3379 40.2408V33.7776C63.3379 33.2381 63.4395 32.721 63.6538 32.2377C63.8568 31.7543 64.1501 31.3272 64.5111 30.9675C64.872 30.6078 65.3007 30.3156 65.7857 30.1132C66.7332 29.7086 67.9064 29.6974 68.8765 30.1245C69.3615 30.3381 69.7901 30.6191 70.1511 30.9787C70.5121 31.3384 70.8053 31.7656 71.0084 32.2489C71.2227 32.7322 71.3242 33.2493 71.3242 33.7888V40.252C71.3242 40.6679 71.4709 41.0276 71.7642 41.3198C72.0574 41.6121 72.4184 41.7582 72.8358 41.7582C73.2418 41.7582 73.6028 41.6121 73.8961 41.3198C74.1894 41.0276 74.336 40.6679 74.336 40.252V33.7888C74.336 32.8334 74.1442 31.9117 73.772 31.0687C73.3772 30.2256 72.8583 29.4838 72.2266 28.8543Z" fill="#00A2E0"/>
<path d="M72.2266 28.8543C71.5837 28.2249 70.8392 27.7303 69.9932 27.3706C69.1472 27.0109 68.2561 26.8198 67.3198 26.8198C65.8083 26.8198 64.4547 27.2357 63.3154 28.0563C63.2703 27.764 63.1236 27.4943 62.898 27.2582C62.6047 26.966 62.2551 26.8086 61.8377 26.8086C61.4203 26.8086 61.0594 26.9547 60.7661 27.2582C60.4728 27.5505 60.3262 27.9101 60.3262 28.3148V40.2408C60.3262 40.6567 60.4728 41.0163 60.7661 41.3086C61.0594 41.6008 61.4203 41.747 61.8377 41.747C62.2438 41.747 62.6047 41.6008 62.898 41.3086C63.1913 41.0163 63.3379 40.6567 63.3379 40.2408V33.7776C63.3379 33.2381 63.4395 32.721 63.6538 32.2377C63.8568 31.7543 64.1501 31.3272 64.5111 30.9675C64.872 30.6078 65.3007 30.3156 65.7857 30.1132C66.7332 29.7086 67.9064 29.6974 68.8765 30.1245C69.3615 30.3381 69.7901 30.6191 70.1511 30.9787C70.5121 31.3384 70.8053 31.7656 71.0084 32.2489C71.2227 32.7322 71.3242 33.2493 71.3242 33.7888V40.252C71.3242 40.6679 71.4709 41.0276 71.7642 41.3198C72.0574 41.6121 72.4184 41.7582 72.8358 41.7582C73.2418 41.7582 73.6028 41.6121 73.8961 41.3198C74.1894 41.0276 74.336 40.6679 74.336 40.252V33.7888C74.336 32.8334 74.1442 31.9117 73.772 31.0687C73.3772 30.2256 72.8583 29.4838 72.2266 28.8543Z" fill="black"/>
<path d="M90.2964 31.4176C89.9355 30.5409 89.3827 29.7203 88.6495 29.0122C87.1719 27.5622 85.3896 26.8203 83.3479 26.8203C81.2837 26.8203 79.5014 27.5509 78.0463 29.0122C76.5912 30.4622 75.8467 32.2381 75.8467 34.2951C75.8467 36.3521 76.5799 38.1281 78.0463 39.5781C79.5014 41.0281 81.2837 41.7699 83.3479 41.7699C85.2204 41.7699 86.8673 41.1629 88.2547 39.949C88.5367 39.6567 88.6834 39.2971 88.6834 38.8812C88.6834 38.454 88.5367 38.0943 88.2547 37.8133C87.9727 37.5323 87.6118 37.3862 87.1831 37.3862C86.8109 37.3974 86.4838 37.5211 86.1905 37.7571C85.7957 38.0943 85.3558 38.3529 84.8933 38.5215C84.4308 38.6901 83.9119 38.78 83.3479 38.78C82.8516 38.78 82.3778 38.7013 81.9266 38.5552C81.4754 38.3978 81.0468 38.1843 80.6745 37.9145C80.291 37.6447 79.9639 37.3075 79.6819 36.9254C79.4337 36.5881 79.242 36.2172 79.0953 35.8126H89.3376C89.755 35.8126 90.1159 35.6664 90.4092 35.3854C90.7025 35.1044 90.8492 34.7447 90.8492 34.3176C90.8492 33.2722 90.6574 32.2943 90.2964 31.4176ZM79.6593 31.6874C79.9413 31.3052 80.2797 30.968 80.652 30.6982C81.0355 30.4285 81.4641 30.2036 81.9153 30.0575C82.829 29.754 83.8442 29.754 84.7466 30.0575C85.1978 30.2149 85.6265 30.4285 85.9987 30.6982C86.371 30.968 86.7094 31.3052 87.0027 31.6986C87.2508 32.0358 87.4539 32.4067 87.5892 32.8114H79.0728C79.2307 32.3955 79.4225 32.0246 79.6593 31.6874Z" fill="#00A2E0"/>
<path d="M90.2964 31.4176C89.9355 30.5409 89.3827 29.7203 88.6495 29.0122C87.1719 27.5622 85.3896 26.8203 83.3479 26.8203C81.2837 26.8203 79.5014 27.5509 78.0463 29.0122C76.5912 30.4622 75.8467 32.2381 75.8467 34.2951C75.8467 36.3521 76.5799 38.1281 78.0463 39.5781C79.5014 41.0281 81.2837 41.7699 83.3479 41.7699C85.2204 41.7699 86.8673 41.1629 88.2547 39.949C88.5367 39.6567 88.6834 39.2971 88.6834 38.8812C88.6834 38.454 88.5367 38.0943 88.2547 37.8133C87.9727 37.5323 87.6118 37.3862 87.1831 37.3862C86.8109 37.3974 86.4838 37.5211 86.1905 37.7571C85.7957 38.0943 85.3558 38.3529 84.8933 38.5215C84.4308 38.6901 83.9119 38.78 83.3479 38.78C82.8516 38.78 82.3778 38.7013 81.9266 38.5552C81.4754 38.3978 81.0468 38.1843 80.6745 37.9145C80.291 37.6447 79.9639 37.3075 79.6819 36.9254C79.4337 36.5881 79.242 36.2172 79.0953 35.8126H89.3376C89.755 35.8126 90.1159 35.6664 90.4092 35.3854C90.7025 35.1044 90.8492 34.7447 90.8492 34.3176C90.8492 33.2722 90.6574 32.2943 90.2964 31.4176ZM79.6593 31.6874C79.9413 31.3052 80.2797 30.968 80.652 30.6982C81.0355 30.4285 81.4641 30.2036 81.9153 30.0575C82.829 29.754 83.8442 29.754 84.7466 30.0575C85.1978 30.2149 85.6265 30.4285 85.9987 30.6982C86.371 30.968 86.7094 31.3052 87.0027 31.6986C87.2508 32.0358 87.4539 32.4067 87.5892 32.8114H79.0728C79.2307 32.3955 79.4225 32.0246 79.6593 31.6874Z" fill="black"/>
<path fill-rule="evenodd" clip-rule="evenodd" d="M34.5279 45.4334C33.5465 44.8602 32.4073 44.523 31.189 44.523C27.5681 44.523 24.624 47.4455 24.624 51.0648C24.624 54.673 27.5568 57.6067 31.189 57.6067C34.8099 57.6067 37.754 54.6842 37.754 51.0648C37.754 49.761 37.3705 48.547 36.705 47.5241L43.3151 40.6675C42.424 40.2179 41.5892 39.6334 40.8222 38.9141L34.5279 45.4334Z" fill="#B0D7F4"/>
<path fill-rule="evenodd" clip-rule="evenodd" d="M34.5279 45.4334C33.5465 44.8602 32.4073 44.523 31.189 44.523C27.5681 44.523 24.624 47.4455 24.624 51.0648C24.624 54.673 27.5568 57.6067 31.189 57.6067C34.8099 57.6067 37.754 54.6842 37.754 51.0648C37.754 49.761 37.3705 48.547 36.705 47.5241L43.3151 40.6675C42.424 40.2179 41.5892 39.6334 40.8222 38.9141L34.5279 45.4334Z" fill="black"/>
<path fill-rule="evenodd" clip-rule="evenodd" d="M61.3523 44.8384C60.7545 44.8384 60.1905 44.9508 59.6603 45.1419L54.9678 39.252C54.1782 39.9264 53.3209 40.4771 52.4072 40.8818L57.2802 47.0078C56.7613 47.7833 56.4455 48.7163 56.4455 49.7279C56.4455 52.4256 58.6338 54.6062 61.341 54.6062C64.0482 54.6062 66.2366 52.4256 66.2366 49.7279C66.2479 47.0302 64.0595 44.8384 61.3523 44.8384Z" fill="#B0D7F4"/>
<path fill-rule="evenodd" clip-rule="evenodd" d="M61.3523 44.8384C60.7545 44.8384 60.1905 44.9508 59.6603 45.1419L54.9678 39.252C54.1782 39.9264 53.3209 40.4771 52.4072 40.8818L57.2802 47.0078C56.7613 47.7833 56.4455 48.7163 56.4455 49.7279C56.4455 52.4256 58.6338 54.6062 61.341 54.6062C64.0482 54.6062 66.2366 52.4256 66.2366 49.7279C66.2479 47.0302 64.0595 44.8384 61.3523 44.8384Z" fill="black"/>
<path fill-rule="evenodd" clip-rule="evenodd" d="M53.2986 11.1945C56.0623 10.936 58.2167 8.62049 58.2167 5.81041C58.2167 2.82049 55.7803 0.392578 52.7798 0.392578C49.7793 0.392578 47.3428 2.82049 47.3428 5.81041C47.3428 7.92359 48.561 9.74452 50.3207 10.6325L48.7415 20.5465C49.7793 20.6027 50.7719 20.7937 51.7082 21.131L53.2986 11.1945Z" fill="#B0D7F4"/>
<path fill-rule="evenodd" clip-rule="evenodd" d="M53.2986 11.1945C56.0623 10.936 58.2167 8.62049 58.2167 5.81041C58.2167 2.82049 55.7803 0.392578 52.7798 0.392578C49.7793 0.392578 47.3428 2.82049 47.3428 5.81041C47.3428 7.92359 48.561 9.74452 50.3207 10.6325L48.7415 20.5465C49.7793 20.6027 50.7719 20.7937 51.7082 21.131L53.2986 11.1945Z" fill="black"/>
<path d="M12.6226 31.9226C12.3406 31.428 11.9909 30.9672 11.5848 30.5513C11.2126 30.1691 10.7727 29.8206 10.2764 29.5172C11.0547 28.5393 11.4495 27.3815 11.4495 26.0776C11.4495 25.3245 11.3028 24.5939 11.0096 23.9195C10.7163 23.2451 10.3215 22.6493 9.81387 22.1435C9.30627 21.6377 8.70843 21.2331 8.03163 20.952C7.35482 20.6598 6.6329 20.5137 5.86585 20.5137H1.80503C1.59071 20.5137 1.39895 20.5586 1.20719 20.6373C1.02671 20.716 0.86879 20.8284 0.733429 20.952C0.598068 21.0869 0.485268 21.2443 0.406307 21.4354C0.327347 21.6265 0.282227 21.8175 0.282227 22.0311V40.2404C0.282227 40.454 0.327347 40.6451 0.406307 40.8362C0.485268 41.016 0.598068 41.1846 0.733429 41.3195C0.86879 41.4544 1.02671 41.5555 1.20719 41.6342C1.38767 41.7129 1.59071 41.7579 1.80503 41.7579H6.88106C7.78346 41.7579 8.64075 41.578 9.44163 41.2408C10.2425 40.8924 10.9419 40.4203 11.5284 39.8245C12.115 39.2288 12.6 38.5319 12.9384 37.7338C13.2881 36.9358 13.4573 36.0815 13.4573 35.1823C13.4573 34.609 13.3897 34.0358 13.243 33.4962C13.1189 32.9455 12.9046 32.4172 12.6226 31.9226ZM8.20083 27.0668C8.06547 27.3703 7.88499 27.64 7.65938 27.8761C7.43378 28.1121 7.16306 28.292 6.8585 28.4268C6.55394 28.5617 6.22682 28.6292 5.87713 28.6292H3.32784V23.571H5.86585C6.20426 23.571 6.53138 23.6385 6.83594 23.7734C7.1405 23.9082 7.41122 24.0881 7.6481 24.3241C7.88499 24.5602 8.06547 24.83 8.20083 25.1334C8.33619 25.4369 8.40387 25.7629 8.40387 26.1001C8.40387 26.4373 8.33619 26.7633 8.20083 27.0668ZM6.88106 38.723H3.32784V31.6528H6.88106C7.3661 31.6528 7.8173 31.7427 8.24595 31.9338C8.67459 32.1137 9.05811 32.3722 9.37395 32.6982C9.68979 33.0129 9.94924 33.3951 10.141 33.8222C10.3328 34.2493 10.423 34.7102 10.423 35.1823C10.423 35.6656 10.3328 36.1377 10.141 36.5648C9.96052 36.992 9.70107 37.3741 9.38523 37.6889C9.06939 38.0036 8.68587 38.2621 8.25723 38.4532C7.83986 38.6331 7.37738 38.723 6.88106 38.723Z" fill="#242344"/>
<path d="M12.6226 31.9226C12.3406 31.428 11.9909 30.9672 11.5848 30.5513C11.2126 30.1691 10.7727 29.8206 10.2764 29.5172C11.0547 28.5393 11.4495 27.3815 11.4495 26.0776C11.4495 25.3245 11.3028 24.5939 11.0096 23.9195C10.7163 23.2451 10.3215 22.6493 9.81387 22.1435C9.30627 21.6377 8.70843 21.2331 8.03163 20.952C7.35482 20.6598 6.6329 20.5137 5.86585 20.5137H1.80503C1.59071 20.5137 1.39895 20.5586 1.20719 20.6373C1.02671 20.716 0.86879 20.8284 0.733429 20.952C0.598068 21.0869 0.485268 21.2443 0.406307 21.4354C0.327347 21.6265 0.282227 21.8175 0.282227 22.0311V40.2404C0.282227 40.454 0.327347 40.6451 0.406307 40.8362C0.485268 41.016 0.598068 41.1846 0.733429 41.3195C0.86879 41.4544 1.02671 41.5555 1.20719 41.6342C1.38767 41.7129 1.59071 41.7579 1.80503 41.7579H6.88106C7.78346 41.7579 8.64075 41.578 9.44163 41.2408C10.2425 40.8924 10.9419 40.4203 11.5284 39.8245C12.115 39.2288 12.6 38.5319 12.9384 37.7338C13.2881 36.9358 13.4573 36.0815 13.4573 35.1823C13.4573 34.609 13.3897 34.0358 13.243 33.4962C13.1189 32.9455 12.9046 32.4172 12.6226 31.9226ZM8.20083 27.0668C8.06547 27.3703 7.88499 27.64 7.65938 27.8761C7.43378 28.1121 7.16306 28.292 6.8585 28.4268C6.55394 28.5617 6.22682 28.6292 5.87713 28.6292H3.32784V23.571H5.86585C6.20426 23.571 6.53138 23.6385 6.83594 23.7734C7.1405 23.9082 7.41122 24.0881 7.6481 24.3241C7.88499 24.5602 8.06547 24.83 8.20083 25.1334C8.33619 25.4369 8.40387 25.7629 8.40387 26.1001C8.40387 26.4373 8.33619 26.7633 8.20083 27.0668ZM6.88106 38.723H3.32784V31.6528H6.88106C7.3661 31.6528 7.8173 31.7427 8.24595 31.9338C8.67459 32.1137 9.05811 32.3722 9.37395 32.6982C9.68979 33.0129 9.94924 33.3951 10.141 33.8222C10.3328 34.2493 10.423 34.7102 10.423 35.1823C10.423 35.6656 10.3328 36.1377 10.141 36.5648C9.96052 36.992 9.70107 37.3741 9.38523 37.6889C9.06939 38.0036 8.68587 38.2621 8.25723 38.4532C7.83986 38.6331 7.37738 38.723 6.88106 38.723Z" fill="black"/>
<path d="M17.0667 26.8203C16.6606 26.8203 16.2996 26.9664 16.0063 27.2587C15.713 27.5509 15.5664 27.9106 15.5664 28.3265V40.2525C15.5664 40.6684 15.713 41.0281 16.0063 41.3203C16.2996 41.6126 16.6493 41.7587 17.0667 41.7587C17.4727 41.7587 17.8337 41.6126 18.127 41.3203C18.4203 41.0281 18.5669 40.6684 18.5782 40.2525V28.3265C18.5669 27.9106 18.4203 27.5509 18.127 27.2587C17.8224 26.9664 17.4727 26.8203 17.0667 26.8203Z" fill="#242344"/>
<path d="M17.0667 26.8203C16.6606 26.8203 16.2996 26.9664 16.0063 27.2587C15.713 27.5509 15.5664 27.9106 15.5664 28.3265V40.2525C15.5664 40.6684 15.713 41.0281 16.0063 41.3203C16.2996 41.6126 16.6493 41.7587 17.0667 41.7587C17.4727 41.7587 17.8337 41.6126 18.127 41.3203C18.4203 41.0281 18.5669 40.6684 18.5782 40.2525V28.3265C18.5669 27.9106 18.4203 27.5509 18.127 27.2587C17.8224 26.9664 17.4727 26.8203 17.0667 26.8203Z" fill="black"/>
<path d="M17.0668 22.6035C16.5817 22.6035 16.1756 22.7721 15.826 23.1093C15.4876 23.4465 15.3184 23.8624 15.3184 24.3458C15.3184 24.8291 15.4876 25.2337 15.826 25.5822C16.1644 25.9194 16.5817 26.088 17.0668 26.088C17.5518 26.088 17.9579 25.9194 18.3076 25.5822C18.646 25.245 18.8152 24.8291 18.8152 24.3458C18.8152 23.8624 18.646 23.4578 18.3076 23.1093C17.9579 22.7721 17.5405 22.6035 17.0668 22.6035Z" fill="#242344"/>
<path d="M17.0668 22.6035C16.5817 22.6035 16.1756 22.7721 15.826 23.1093C15.4876 23.4465 15.3184 23.8624 15.3184 24.3458C15.3184 24.8291 15.4876 25.2337 15.826 25.5822C16.1644 25.9194 16.5817 26.088 17.0668 26.088C17.5518 26.088 17.9579 25.9194 18.3076 25.5822C18.646 25.245 18.8152 24.8291 18.8152 24.3458C18.8152 23.8624 18.646 23.4578 18.3076 23.1093C17.9579 22.7721 17.5405 22.6035 17.0668 22.6035Z" fill="black"/>
<path d="M35.4307 20.9525C35.1374 20.6715 34.7765 20.5254 34.3591 20.5254C33.9305 20.5254 33.5695 20.6715 33.2875 20.9525C33.0055 21.2335 32.8589 21.5932 32.8589 22.0204V28.3037C31.5504 27.3258 30.0501 26.8312 28.3694 26.8312C26.3052 26.8312 24.5229 27.5618 23.0678 29.0231C21.6126 30.4731 20.8682 32.249 20.8682 34.306C20.8682 36.363 21.6014 38.139 23.0678 39.589C24.5229 41.039 26.3052 41.7808 28.3694 41.7808C30.4111 41.7808 32.1933 41.0502 33.671 39.589C35.1262 38.1502 35.8706 36.3742 35.8706 34.306V22.0204C35.8706 21.5932 35.724 21.2335 35.4307 20.9525ZM24.2296 32.5638C24.4665 32.0242 24.7823 31.5409 25.1884 31.1362C25.5832 30.7316 26.0683 30.4056 26.6097 30.1696C27.1512 29.9335 27.749 29.8099 28.3694 29.8099C28.9898 29.8099 29.5764 29.9335 30.1178 30.1696C30.6593 30.4056 31.1443 30.7316 31.5504 31.1362C31.9565 31.5409 32.2723 32.0242 32.5092 32.5638C32.7461 33.1033 32.8589 33.6766 32.8589 34.2835C32.8589 34.8905 32.7461 35.475 32.5092 36.0033C32.2723 36.5428 31.9565 37.0149 31.5504 37.4308C31.1443 37.8355 30.6705 38.1614 30.1178 38.3975C29.5764 38.6335 28.9898 38.7572 28.3694 38.7572C27.7377 38.7572 27.1512 38.6335 26.6097 38.3975C26.0683 38.1614 25.5832 37.8355 25.1884 37.4308C24.7936 37.0262 24.4665 36.5541 24.2296 36.0033C23.9927 35.4638 23.8799 34.8793 23.8799 34.2723C23.8799 33.6878 24.004 33.1033 24.2296 32.5638Z" fill="#242344"/>
<path d="M35.4307 20.9525C35.1374 20.6715 34.7765 20.5254 34.3591 20.5254C33.9305 20.5254 33.5695 20.6715 33.2875 20.9525C33.0055 21.2335 32.8589 21.5932 32.8589 22.0204V28.3037C31.5504 27.3258 30.0501 26.8312 28.3694 26.8312C26.3052 26.8312 24.5229 27.5618 23.0678 29.0231C21.6126 30.4731 20.8682 32.249 20.8682 34.306C20.8682 36.363 21.6014 38.139 23.0678 39.589C24.5229 41.039 26.3052 41.7808 28.3694 41.7808C30.4111 41.7808 32.1933 41.0502 33.671 39.589C35.1262 38.1502 35.8706 36.3742 35.8706 34.306V22.0204C35.8706 21.5932 35.724 21.2335 35.4307 20.9525ZM24.2296 32.5638C24.4665 32.0242 24.7823 31.5409 25.1884 31.1362C25.5832 30.7316 26.0683 30.4056 26.6097 30.1696C27.1512 29.9335 27.749 29.8099 28.3694 29.8099C28.9898 29.8099 29.5764 29.9335 30.1178 30.1696C30.6593 30.4056 31.1443 30.7316 31.5504 31.1362C31.9565 31.5409 32.2723 32.0242 32.5092 32.5638C32.7461 33.1033 32.8589 33.6766 32.8589 34.2835C32.8589 34.8905 32.7461 35.475 32.5092 36.0033C32.2723 36.5428 31.9565 37.0149 31.5504 37.4308C31.1443 37.8355 30.6705 38.1614 30.1178 38.3975C29.5764 38.6335 28.9898 38.7572 28.3694 38.7572C27.7377 38.7572 27.1512 38.6335 26.6097 38.3975C26.0683 38.1614 25.5832 37.8355 25.1884 37.4308C24.7936 37.0262 24.4665 36.5541 24.2296 36.0033C23.9927 35.4638 23.8799 34.8793 23.8799 34.2723C23.8799 33.6878 24.004 33.1033 24.2296 32.5638Z" fill="black"/>
</svg>
