<svg width="108" height="40" viewBox="0 0 108 40" fill="none" xmlns="http://www.w3.org/2000/svg">
<g clip-path="url(#clip0_4415_21137)">
<mask id="mask0_4415_21137" style="mask-type:luminance" maskUnits="userSpaceOnUse" x="51" y="31" width="30" height="8">
<path d="M80.094 31.584H51.124V38.8886H80.094V31.584Z" fill="white"/>
</mask>
<g mask="url(#mask0_4415_21137)">
<path d="M53.4821 38.8117C52.8634 38.8328 52.2641 38.599 51.8208 38.167C51.3904 37.7529 51.1517 37.1764 51.1647 36.5787C51.1501 35.9795 51.3888 35.4014 51.8208 34.9873C52.2576 34.5601 52.8114 34.3458 53.4821 34.3458C53.8719 34.3425 54.2551 34.4367 54.5994 34.6186C54.9274 34.7875 55.2035 35.0441 55.3984 35.3575L54.6416 35.7814C54.5312 35.5897 54.3672 35.4322 54.1707 35.3299C53.9579 35.2195 53.7224 35.1643 53.4837 35.1675C53.0956 35.1496 52.7172 35.2926 52.4363 35.5605C52.1683 35.8301 52.0238 36.1987 52.0384 36.5787C52.0238 36.9571 52.1683 37.3241 52.4363 37.5905C52.7172 37.8584 53.0956 37.9997 53.4837 37.9835C53.7241 37.9867 53.9612 37.9315 54.1739 37.8211C54.3704 37.722 54.5328 37.5661 54.6416 37.3761L55.3984 37.8C55.2051 38.1134 54.9291 38.37 54.6026 38.5389C54.2584 38.7224 53.8735 38.8166 53.4821 38.8117Z" fill="#59504F"/>
<path d="M58.3784 38.3432C58.0585 38.6533 57.6282 38.8222 57.1816 38.8125C56.7366 38.8222 56.3063 38.6533 55.988 38.3432C55.353 37.7277 55.3368 36.7143 55.9522 36.0777C55.9636 36.0664 55.9766 36.0534 55.988 36.042C56.3063 35.7318 56.7366 35.5629 57.1816 35.5727C57.6265 35.5629 58.0585 35.7318 58.3784 36.042C59.0134 36.6526 59.0345 37.6627 58.4239 38.2977C58.4093 38.3123 58.3947 38.3285 58.3784 38.3432ZM56.5677 37.8008C56.7317 37.9599 56.9526 38.0476 57.1816 38.0395C57.4106 38.046 57.633 37.9599 57.7987 37.8008C58.13 37.463 58.13 36.9238 57.7987 36.586C57.633 36.4269 57.4106 36.3408 57.1816 36.3473C56.9526 36.3408 56.7317 36.4269 56.5677 36.586C56.2413 36.9254 56.2413 37.4613 56.5677 37.8008Z" fill="#59504F"/>
<path d="M60.0141 36.1852C60.0839 35.9969 60.2171 35.841 60.3925 35.7435C60.5728 35.6445 60.7758 35.5941 60.9804 35.5957V36.4792C60.7465 36.4467 60.5078 36.4987 60.308 36.627C60.1115 36.7536 60.0125 36.9647 60.0125 37.2587V38.7251H59.1924V35.6575H60.0141V36.1852Z" fill="#59504F"/>
<path d="M63.4953 34.4297H64.317V38.7235H63.4953V38.3613C63.2533 38.6601 62.909 38.8095 62.4641 38.8095C62.0483 38.8144 61.6488 38.6455 61.3663 38.3402C61.0658 38.0333 60.9018 37.6192 60.9115 37.1904C60.9018 36.7617 61.0658 36.346 61.3663 36.0407C61.6505 35.737 62.0483 35.5665 62.4641 35.5713C62.909 35.5713 63.2533 35.7207 63.4953 36.0196V34.4313V34.4297ZM61.9834 37.8124C62.1539 37.9748 62.3812 38.0625 62.6167 38.0544C62.8506 38.0625 63.0779 37.9748 63.2468 37.8124C63.4125 37.6484 63.5034 37.4227 63.4953 37.1888C63.5034 36.955 63.4141 36.7292 63.2468 36.5668C63.0779 36.4044 62.8506 36.3167 62.6167 36.3249C62.3812 36.3167 62.1539 36.4044 61.9834 36.5668C61.8145 36.7292 61.7235 36.955 61.7317 37.1888C61.7235 37.4227 61.8145 37.6484 61.9834 37.8124Z" fill="#59504F"/>
<path d="M67.2308 35.6588H68.0525V38.7264H67.2308V38.3643C66.9839 38.6631 66.638 38.8125 66.1931 38.8125C65.7789 38.8174 65.3827 38.6469 65.1017 38.3432C64.8013 38.0379 64.6357 37.6221 64.647 37.1934C64.6373 36.7647 64.8013 36.349 65.1017 36.0436C65.3827 35.74 65.7789 35.5694 66.1931 35.5743C66.638 35.5743 66.9839 35.7237 67.2308 36.0225V35.6604V35.6588ZM65.7156 37.8154C65.8845 37.9778 66.1119 38.0655 66.3457 38.0574C66.5812 38.0655 66.8085 37.9778 66.9791 37.8154C67.1479 37.653 67.2389 37.4256 67.2308 37.1918C67.2389 36.9579 67.1479 36.7322 66.9791 36.5698C66.8085 36.4074 66.5812 36.3197 66.3457 36.3278C66.1119 36.3197 65.8845 36.4074 65.7156 36.5698C65.55 36.7338 65.459 36.9596 65.4671 37.1918C65.459 37.4256 65.5483 37.6514 65.7156 37.8154Z" fill="#59504F"/>
<path d="M70.3108 35.5728C70.6324 35.5631 70.9442 35.6849 71.1731 35.9106C71.4005 36.1347 71.5142 36.4465 71.5142 36.8428V38.7266H70.6924V36.9418C70.7038 36.768 70.6421 36.5975 70.5203 36.4725C70.3953 36.3604 70.2296 36.302 70.0623 36.3101C69.874 36.302 69.6905 36.3702 69.5524 36.5001C69.4144 36.656 69.3462 36.8622 69.3608 37.0701V38.7266H68.5391V35.6589H69.3608V36.0015C69.5605 35.7157 69.8772 35.5728 70.3092 35.5728H70.3108Z" fill="#59504F"/>
<path d="M73.4751 38.8112C73.0285 38.8242 72.5966 38.6553 72.275 38.3451C71.96 38.0463 71.7846 37.6273 71.7943 37.1921C71.7846 36.7568 71.96 36.3379 72.275 36.039C72.5949 35.7272 73.0285 35.56 73.4751 35.573C73.7707 35.5697 74.063 35.6428 74.3212 35.7873C74.5648 35.9205 74.7662 36.1202 74.901 36.3638L74.1946 36.7617C74.1312 36.635 74.0289 36.5295 73.9055 36.4613C73.7723 36.3866 73.6213 36.3492 73.4686 36.3509C73.2413 36.3427 73.0204 36.4288 72.858 36.5863C72.5349 36.9225 72.5349 37.4535 72.858 37.7881C73.0221 37.9456 73.2413 38.0317 73.4686 38.0235C73.6229 38.0268 73.7756 37.9894 73.9104 37.9164C74.0354 37.8498 74.1361 37.7458 74.1994 37.6192L74.9124 38.0122C74.7711 38.2558 74.5665 38.4555 74.3196 38.5919C74.0614 38.7381 73.7691 38.8128 73.4735 38.8095L73.4751 38.8112Z" fill="#59504F"/>
<path d="M75.7351 37.5172C75.8455 37.9021 76.1443 38.0937 76.6331 38.0937C76.906 38.1116 77.1707 37.9979 77.3461 37.7868L78.0086 38.1555C77.6936 38.5923 77.2324 38.8115 76.6218 38.8115C76.0956 38.8115 75.6734 38.6589 75.3551 38.352C75.0384 38.0499 74.8646 37.6293 74.8776 37.1924C74.8663 36.7588 75.0368 36.3382 75.3486 36.0362C75.6718 35.7244 76.1086 35.5571 76.5584 35.5733C76.992 35.5604 77.411 35.7292 77.7131 36.0394C78.0151 36.3464 78.1792 36.7621 78.1678 37.1924C78.1678 37.3013 78.1564 37.4101 78.1369 37.5189H75.7367L75.7351 37.5172ZM75.7221 36.9034H77.3444C77.312 36.7166 77.208 36.5494 77.0554 36.4373C76.9092 36.335 76.7338 36.2814 76.5552 36.2846C76.3603 36.2765 76.1671 36.3334 76.0079 36.447C75.8601 36.5607 75.7595 36.7215 75.7221 36.9034Z" fill="#59504F"/>
<path d="M57.4965 31.584V32.8945H51.124V31.584H57.4965Z" fill="#59504F"/>
<path d="M79.8961 38.6983C79.6297 38.9532 79.2091 38.9532 78.9428 38.6983C78.6894 38.4596 78.6765 38.0601 78.9152 37.8067C78.9233 37.797 78.933 37.7889 78.9428 37.7791C79.2091 37.5241 79.6297 37.5241 79.8961 37.7791C80.1494 38.0178 80.1624 38.4173 79.9237 38.6707C79.9155 38.6804 79.9058 38.6885 79.8961 38.6983Z" fill="#59504F"/>
</g>
<path d="M48.6267 35.5151H49.4517V38.7159H48.6267V38.3376C48.3798 38.6494 48.0307 38.8053 47.5841 38.8053C47.1375 38.8053 46.7916 38.6429 46.4863 38.3148C46.181 37.9884 46.0283 37.5889 46.0283 37.1147C46.0283 36.6405 46.181 36.241 46.4863 35.9146C46.7916 35.5882 47.157 35.4258 47.5841 35.4258C48.0323 35.4258 48.3798 35.5817 48.6267 35.8935V35.5151ZM47.1034 37.7643C47.269 37.9332 47.4818 38.0176 47.7367 38.0176C47.9917 38.0176 48.2044 37.9332 48.3733 37.7643C48.5422 37.5954 48.6267 37.3794 48.6267 37.1147C48.6267 36.85 48.5422 36.634 48.3733 36.4651C48.2044 36.2962 47.9917 36.2118 47.7367 36.2118C47.4818 36.2118 47.269 36.2962 47.1034 36.4651C46.9377 36.634 46.8533 36.85 46.8533 37.1147C46.8533 37.3794 46.9361 37.5954 47.1034 37.7643Z" fill="#999999"/>
<path d="M82.7335 38.8069C82.2512 38.8069 81.8485 38.6445 81.5269 38.3197C81.2054 37.9949 81.043 37.5938 81.043 37.1163C81.043 36.6389 81.2037 36.2378 81.5269 35.913C81.8485 35.5882 82.2512 35.4258 82.7335 35.4258C83.0453 35.4258 83.3295 35.5005 83.5845 35.6499C83.8411 35.7993 84.0343 36.0007 84.1675 36.2524L83.4562 36.6681C83.3929 36.5366 83.2954 36.431 83.1655 36.3547C83.0356 36.2784 82.8894 36.2394 82.727 36.2394C82.4802 36.2394 82.2739 36.3222 82.1132 36.4862C81.9508 36.6503 81.8696 36.8614 81.8696 37.1163C81.8696 37.3713 81.9508 37.5759 82.1132 37.7399C82.2756 37.904 82.4802 37.9868 82.727 37.9868C82.8927 37.9868 83.0421 37.9494 83.172 37.8747C83.3019 37.8 83.3993 37.6961 83.4627 37.5645L84.1788 37.9738C84.0376 38.2255 83.8394 38.4269 83.5829 38.5779C83.3263 38.7289 83.0437 38.8053 82.7319 38.8053L82.7335 38.8069Z" fill="#999999"/>
<path d="M87.1117 38.3168C86.7836 38.6432 86.3825 38.8072 85.9083 38.8072C85.4341 38.8072 85.0346 38.6448 84.7082 38.3168C84.3818 37.9904 84.2178 37.5909 84.2178 37.1167C84.2178 36.6425 84.3802 36.243 84.7082 35.9166C85.0346 35.5901 85.4341 35.4277 85.9083 35.4277C86.3825 35.4277 86.7836 35.5901 87.1117 35.9166C87.4397 36.243 87.6037 36.6425 87.6037 37.1167C87.6037 37.5909 87.4397 37.9904 87.1117 38.3168ZM85.2912 37.75C85.4552 37.9157 85.6615 38.0001 85.9083 38.0001C86.1552 38.0001 86.363 37.9173 86.5287 37.75C86.6943 37.5827 86.7788 37.3716 86.7788 37.1167C86.7788 36.8617 86.6959 36.649 86.5287 36.4833C86.363 36.3177 86.1552 36.2332 85.9083 36.2332C85.6615 36.2332 85.4552 36.316 85.2912 36.4833C85.1272 36.6506 85.0444 36.8617 85.0444 37.1167C85.0444 37.3716 85.1272 37.5844 85.2912 37.75Z" fill="#999999"/>
<path d="M91.5468 35.4271C91.9138 35.4271 92.2077 35.5472 92.427 35.786C92.6462 36.0247 92.7566 36.3446 92.7566 36.7457V38.7172H91.9317V36.8026C91.9317 36.6109 91.8846 36.4615 91.7904 36.3544C91.6962 36.2472 91.5646 36.1936 91.3941 36.1936C91.2057 36.1936 91.0596 36.2553 90.9556 36.3787C90.8517 36.5021 90.7981 36.6824 90.7981 36.9163V38.7156H89.9731V36.801C89.9731 36.6093 89.926 36.4599 89.8319 36.3527C89.7377 36.2456 89.6061 36.192 89.4356 36.192C89.2521 36.192 89.1059 36.2537 88.9971 36.3771C88.8883 36.5005 88.8347 36.6808 88.8347 36.9146V38.714H88.0098V35.5131H88.8347V35.8526C89.0264 35.5667 89.3236 35.4238 89.7247 35.4238C90.1258 35.4238 90.4067 35.5781 90.5951 35.885C90.8079 35.5781 91.1262 35.4238 91.5484 35.4238L91.5468 35.4271Z" fill="#999999"/>
<path d="M95.1443 35.4277C95.5746 35.4277 95.9433 35.5901 96.2486 35.9166C96.5539 36.243 96.7065 36.6425 96.7065 37.1167C96.7065 37.5909 96.5539 37.9904 96.2486 38.3168C95.9433 38.6432 95.5746 38.8072 95.1443 38.8072C94.7139 38.8072 94.3502 38.6513 94.1082 38.3395V39.9976H93.2832V35.5171H94.1082V35.8954C94.3518 35.5836 94.6977 35.4277 95.1443 35.4277ZM94.3567 37.7679C94.5223 37.9368 94.735 38.0212 94.99 38.0212C95.245 38.0212 95.4577 37.9368 95.6266 37.7679C95.7955 37.599 95.8799 37.383 95.8799 37.1183C95.8799 36.8536 95.7955 36.6376 95.6266 36.4687C95.4577 36.2998 95.245 36.2154 94.99 36.2154C94.735 36.2154 94.5223 36.2998 94.3567 36.4687C94.191 36.6376 94.1066 36.8536 94.1066 37.1183C94.1066 37.383 94.1894 37.599 94.3567 37.7679Z" fill="#999999"/>
<path d="M99.5417 35.5171H100.367V38.7179H99.5417V38.3395C99.2949 38.6513 98.9457 38.8072 98.4991 38.8072C98.0525 38.8072 97.7066 38.6448 97.4013 38.3168C97.096 37.9904 96.9434 37.5909 96.9434 37.1167C96.9434 36.6425 97.096 36.243 97.4013 35.9166C97.7066 35.5901 98.072 35.4277 98.4991 35.4277C98.9473 35.4277 99.2949 35.5836 99.5417 35.8954V35.5171ZM98.0184 37.7663C98.1841 37.9351 98.3968 38.0196 98.6518 38.0196C98.9067 38.0196 99.1195 37.9351 99.2884 37.7663C99.4573 37.5974 99.5417 37.3814 99.5417 37.1167C99.5417 36.852 99.4573 36.636 99.2884 36.4671C99.1195 36.2982 98.9067 36.2137 98.6518 36.2137C98.3968 36.2137 98.1841 36.2982 98.0184 36.4671C97.8528 36.636 97.7683 36.852 97.7683 37.1167C97.7683 37.3814 97.8512 37.5974 98.0184 37.7663Z" fill="#999999"/>
<path d="M102.716 35.4277C103.065 35.4277 103.354 35.5447 103.583 35.7801C103.812 36.0156 103.926 36.3388 103.926 36.7529V38.7179H103.101V36.8552C103.101 36.6425 103.044 36.4784 102.929 36.3664C102.814 36.2543 102.659 36.1975 102.468 36.1975C102.255 36.1975 102.084 36.2641 101.956 36.3956C101.828 36.5288 101.764 36.7269 101.764 36.9916V38.7195H100.939V35.5187H101.764V35.8776C101.964 35.5788 102.282 35.4294 102.718 35.4294L102.716 35.4277Z" fill="#999999"/>
<path d="M106.468 35.5172H107.351L106.184 38.723C106.018 39.1793 105.797 39.5122 105.521 39.7185C105.247 39.9263 104.904 40.0189 104.495 39.9978V39.2296C104.717 39.2345 104.893 39.1874 105.022 39.0884C105.152 38.9909 105.256 38.8318 105.333 38.6142L104.021 35.5156H104.923L105.758 37.6674L106.466 35.5156L106.468 35.5172Z" fill="#999999"/>
<path d="M63.5213 9.16018C63.5684 9.2901 63.5895 9.42814 63.583 9.56617C63.5765 9.70421 63.5408 9.839 63.4807 9.96405C63.4206 10.0891 63.3361 10.1995 63.2322 10.2905C63.1283 10.3814 63.0065 10.4512 62.8749 10.4951C62.7466 10.5454 62.6086 10.5698 62.4706 10.5665C62.3325 10.5633 62.1961 10.5324 62.0694 10.4756C61.9428 10.4188 61.8291 10.3376 61.7349 10.2369C61.6407 10.1362 61.5676 10.016 61.5205 9.8861L58.4317 4.43281C58.4317 4.43281 56.4521 1.11179 59.1219 0.145527C61.7057 -0.793128 62.3975 2.99722 62.3975 2.99722L63.5196 9.15856L63.5213 9.16018Z" fill="black"/>
<path d="M68.1997 8.71852C68.1997 8.71852 68.0341 9.75461 67.136 9.75461C66.2379 9.75461 66.0723 8.71852 66.0723 8.71852L65.3805 3.5754C65.3805 3.5754 64.7277 0.46875 67.136 0.46875C69.5443 0.46875 68.8915 3.5754 68.8915 3.5754L68.2013 8.71852H68.1997Z" fill="black"/>
<path d="M72.083 10.0612C72.083 10.0612 71.6998 10.6442 71.1363 10.3828C70.5727 10.1197 70.7903 9.45387 70.7903 9.45387L71.4822 6.34721C71.4822 6.34721 72.0278 3.93075 73.7833 4.75247C75.4479 5.52873 74.0383 7.53758 74.0383 7.53758L72.083 10.0612Z" fill="black"/>
<path d="M59.3723 11.4541C59.3723 11.4541 59.7896 12.0128 59.3512 12.4513C58.9127 12.8897 58.3524 12.4724 58.3524 12.4724L55.4228 10.5187C55.4228 10.5187 53.3506 9.17247 54.7082 7.81645C56.0659 6.46044 57.417 8.52775 57.417 8.52775L59.3723 11.4541Z" fill="black"/>
<path fill-rule="evenodd" clip-rule="evenodd" d="M37.7553 28.9583V15.3689C37.757 15.2763 37.7407 15.1854 37.7066 15.1009C37.6725 15.0148 37.6222 14.9385 37.5572 14.8719C37.4923 14.807 37.4159 14.755 37.3315 14.7193C37.247 14.6836 37.1561 14.6657 37.0635 14.6657H33.3869C33.2813 14.6657 33.1758 14.6901 33.0816 14.7371C32.9874 14.7842 32.9029 14.8524 32.8396 14.9369C32.7746 15.0213 32.7308 15.1188 32.7097 15.2227C32.6886 15.3266 32.6934 15.4338 32.721 15.5361L32.8347 15.9681C31.823 14.9369 30.0853 14.4188 28.3152 14.4188C27.016 14.4026 25.7347 14.7274 24.5979 15.3575C23.4774 15.9892 22.5582 16.923 21.9444 18.0533C21.2704 19.3037 20.9326 20.7069 20.9635 22.1262C20.9343 23.5504 21.2721 24.9568 21.9444 26.2121C22.5566 27.3489 23.4758 28.2908 24.5979 28.9323C25.7315 29.5721 27.0144 29.9002 28.3152 29.8855C30.2883 29.8855 32.1056 29.3188 33.0832 28.1593L32.9354 28.8007C32.911 28.9014 32.911 29.007 32.9338 29.1093C32.9565 29.2116 33.002 29.3058 33.0669 29.3886C33.1319 29.4698 33.2147 29.5364 33.3089 29.5819C33.4031 29.6273 33.5054 29.6501 33.611 29.6501H37.0652C37.2487 29.6501 37.4241 29.577 37.554 29.4487C37.6839 29.3188 37.757 29.1434 37.757 28.9599L37.7553 28.9583ZM34.8533 8.12109H25.3531C25.1696 8.12109 24.9942 8.19417 24.8643 8.32409C24.7344 8.45401 24.6613 8.6294 24.6613 8.81291V10.4726C24.6613 10.6561 24.7344 10.8315 24.8643 10.9614C24.9942 11.0913 25.1696 11.1628 25.3531 11.1628H34.8533C35.0368 11.1628 35.2122 11.0897 35.3421 10.9614C35.472 10.8315 35.5451 10.6561 35.5451 10.4726V8.81291C35.5451 8.6294 35.472 8.45401 35.3421 8.32409C35.2122 8.19417 35.0368 8.12109 34.8533 8.12109ZM32.5944 22.1441C32.596 23.2662 32.3021 24.1464 31.7093 24.7814C31.4137 25.0818 31.0613 25.3206 30.6716 25.483C30.2818 25.6454 29.8645 25.7298 29.4422 25.7298C29.02 25.7298 28.6026 25.6454 28.2129 25.483C27.8231 25.3206 27.4707 25.0818 27.1752 24.7814C26.5857 24.1464 26.2901 23.2679 26.2901 22.1441C26.2333 21.1973 26.5516 20.2651 27.1752 19.549C27.4724 19.2518 27.8264 19.0147 28.2145 18.8539C28.6027 18.6931 29.02 18.6103 29.4406 18.6103C29.8612 18.6103 30.2786 18.6931 30.6667 18.8539C31.0548 19.0147 31.4089 19.2518 31.7061 19.549C32.3297 20.2651 32.6463 21.1973 32.5911 22.1441H32.5944ZM56.5544 18.089C55.9389 16.9587 55.0198 16.0217 53.9009 15.3835C52.7738 14.7534 51.5023 14.4302 50.2112 14.4448C48.2413 14.4448 46.4208 15.0116 45.4432 16.1711L45.5959 15.5296C45.6202 15.4273 45.6202 15.3202 45.5959 15.2162C45.5715 15.1139 45.5244 15.0165 45.4578 14.9353C45.3913 14.8524 45.3068 14.7875 45.2094 14.7436C45.1136 14.6998 45.008 14.6787 44.9024 14.6803H41.4483C41.2647 14.6803 41.0894 14.7534 40.9594 14.8833C40.8295 15.0132 40.7564 15.1886 40.7564 15.3721V34.3141C40.7564 34.4976 40.8295 34.673 40.9594 34.8029C41.0894 34.9328 41.2647 35.0059 41.4483 35.0059H45.3182C45.5017 35.0059 45.6771 34.9328 45.807 34.8029C45.9369 34.673 46.01 34.4976 46.01 34.3141V28.3265C47.0445 29.3756 48.4346 29.9002 50.1836 29.9002C51.4844 29.9164 52.7673 29.5867 53.9009 28.9469C55.0198 28.3087 55.9373 27.3716 56.5544 26.2413C57.1975 24.9795 57.5337 23.5829 57.5337 22.1668C57.5337 20.7507 57.1975 19.3541 56.5544 18.0923V18.089ZM52.2298 22.1652C52.2298 23.1087 51.9196 24.0263 51.3447 24.7749C51.0492 25.0753 50.6968 25.3141 50.307 25.4765C49.9173 25.6389 49.4999 25.7233 49.0777 25.7233C48.6554 25.7233 48.2381 25.6389 47.8483 25.4765C47.4586 25.3141 47.1062 25.0753 46.8106 24.7749C46.2373 24.0263 45.9255 23.1087 45.9255 22.1652C45.9255 21.2217 46.2373 20.3041 46.8106 19.5555C47.1062 19.2534 47.4586 19.0147 47.8483 18.8507C48.2381 18.6866 48.6554 18.6022 49.0777 18.6022C49.4999 18.6022 49.9173 18.6866 50.307 18.8507C50.6968 19.0147 51.0492 19.2534 51.3447 19.5555C51.918 20.3041 52.2298 21.2217 52.2298 22.1652ZM76.1817 15.3689V28.9583C76.1817 29.1418 76.1086 29.3171 75.9787 29.4471C75.8488 29.577 75.6734 29.6501 75.4899 29.6501H72.0357C71.9318 29.6501 71.8295 29.6257 71.7353 29.5802C71.6411 29.5348 71.5599 29.4682 71.4949 29.387C71.43 29.3058 71.3845 29.21 71.3634 29.1093C71.3407 29.007 71.3423 28.903 71.365 28.8007L71.5128 28.1593C70.5352 29.3188 68.718 29.8855 66.7448 29.8855C65.4424 29.9018 64.1611 29.5721 63.0276 28.9323C61.9054 28.2908 60.9862 27.3489 60.374 26.2121C59.7 24.9568 59.3623 23.5488 59.3931 22.1262C59.3606 20.7069 59.6984 19.3021 60.374 18.0533C60.9879 16.923 61.907 15.9892 63.0276 15.3575C64.1643 14.7274 65.4457 14.4026 66.7448 14.4188C68.5133 14.4188 70.2477 14.9369 71.2643 15.9681L71.1507 15.5361C71.1231 15.4338 71.1198 15.3266 71.1393 15.2227C71.1604 15.1188 71.2043 15.0213 71.2692 14.9369C71.3342 14.8524 71.417 14.7842 71.5112 14.7371C71.607 14.6901 71.7109 14.6657 71.8165 14.6657H75.4785C75.5711 14.6657 75.6637 14.6819 75.7497 14.716C75.8358 14.7518 75.9138 14.8021 75.9787 14.8687C76.0437 14.9353 76.0957 15.0132 76.1298 15.0993C76.1639 15.1854 76.1817 15.2779 76.1785 15.3705L76.1817 15.3689ZM70.1292 24.7814C70.7203 24.1464 71.0159 23.2679 71.0143 22.1441C71.0695 21.1973 70.7528 20.2651 70.1292 19.549C69.832 19.2518 69.478 19.0147 69.0898 18.8539C68.7017 18.6931 68.2844 18.6103 67.8637 18.6103C67.4431 18.6103 67.0258 18.6931 66.6376 18.8539C66.2495 19.0147 65.8955 19.2518 65.5983 19.549C64.9747 20.2651 64.658 21.1973 64.7132 22.1441C64.7132 23.2662 65.0088 24.1464 65.5983 24.7814C65.8939 25.0818 66.2463 25.3206 66.636 25.483C67.0258 25.6454 67.4431 25.7298 67.8654 25.7298C68.2876 25.7298 68.705 25.6454 69.0947 25.483C69.4845 25.3206 69.8369 25.0818 70.1324 24.7814H70.1292ZM88.8438 14.4578C88.0903 14.5065 87.3465 14.6706 86.6433 14.945C85.8249 15.2584 85.1054 15.7862 84.563 16.4748V15.3705C84.563 15.187 84.4899 15.0116 84.36 14.8817C84.2301 14.7518 84.0547 14.6803 83.8712 14.6803H80.2498C80.0663 14.6803 79.8909 14.7534 79.7609 14.8817C79.631 15.0116 79.558 15.187 79.558 15.3705V28.9599C79.558 29.1434 79.631 29.3188 79.7609 29.4487C79.8909 29.5786 80.0663 29.6501 80.2498 29.6501H84.1116C84.2951 29.6501 84.4705 29.577 84.6004 29.4487C84.7303 29.3188 84.8034 29.1434 84.8034 28.9599V22.7888C84.8034 21.5351 85.1217 20.6078 85.7566 20.0004C86.3916 19.3931 87.2702 19.0894 88.3956 19.0894H88.8454C88.9396 19.0959 89.0354 19.0829 89.1248 19.052C89.2141 19.0196 89.2969 18.9708 89.3651 18.9059C89.4349 18.8409 89.4901 18.763 89.5275 18.6753C89.5649 18.5876 89.5843 18.495 89.5843 18.3992V15.1513C89.5843 15.0554 89.5649 14.9613 89.5275 14.8752C89.4901 14.7875 89.4333 14.7095 89.3635 14.6446C89.2937 14.5796 89.2108 14.5293 89.1215 14.4984C89.0322 14.4676 88.9364 14.4546 88.8406 14.4611L88.8438 14.4578ZM107.442 15.3689V28.9583C107.442 29.1418 107.368 29.3171 107.239 29.4471C107.109 29.577 106.933 29.6501 106.75 29.6501H103.296C103.192 29.6501 103.089 29.6257 102.995 29.5802C102.901 29.5348 102.82 29.4682 102.755 29.387C102.69 29.3058 102.644 29.21 102.623 29.1093C102.6 29.0086 102.602 28.903 102.625 28.8007L102.773 28.1593C101.795 29.3188 99.9745 29.8855 98.0046 29.8855C96.7022 29.9018 95.4209 29.5737 94.2874 28.9323C93.1652 28.2908 92.246 27.3489 91.6338 26.2121C90.9598 24.9568 90.6221 23.5488 90.6529 22.1262C90.6204 20.7069 90.9582 19.3037 91.6338 18.0533C92.2477 16.923 93.1668 15.9892 94.2874 15.3575C95.4241 14.7258 96.7054 14.4026 98.0046 14.4188C99.7731 14.4188 101.511 14.9369 102.524 15.9681L102.41 15.5361C102.383 15.4338 102.38 15.3266 102.399 15.2227C102.42 15.1188 102.464 15.0213 102.529 14.9369C102.594 14.8524 102.677 14.7842 102.771 14.7371C102.867 14.6901 102.971 14.6657 103.076 14.6657H106.738C106.831 14.6657 106.923 14.6819 107.01 14.716C107.096 14.7501 107.174 14.8021 107.239 14.8687C107.303 14.9336 107.355 15.0132 107.39 15.0993C107.424 15.1854 107.442 15.2779 107.438 15.3705L107.442 15.3689ZM101.389 24.7814C102.013 24.049 102.329 23.1038 102.274 22.1441C102.329 21.1973 102.011 20.2651 101.389 19.549C101.092 19.2518 100.738 19.0147 100.35 18.8539C99.9599 18.6931 99.5442 18.6103 99.1235 18.6103C98.7029 18.6103 98.2856 18.6931 97.8974 18.8539C97.5093 19.0147 97.1553 19.2518 96.8581 19.549C96.2345 20.2651 95.9178 21.1973 95.973 22.1441C95.973 23.2662 96.2686 24.1464 96.8581 24.7814C97.1537 25.0818 97.5061 25.3206 97.8958 25.483C98.2856 25.6454 98.7029 25.7298 99.1252 25.7298C99.5474 25.7298 99.9648 25.6454 100.355 25.483C100.744 25.3206 101.097 25.0818 101.392 24.7814H101.389ZM18.409 28.955V8.93795C18.409 8.75444 18.3359 8.57905 18.206 8.44914C18.0761 8.31922 17.9007 8.24614 17.7172 8.24614H13.6264C13.4429 8.24614 13.2675 8.31922 13.1376 8.44914C13.0077 8.57905 12.9346 8.75444 12.9346 8.93795V16.5316H5.47245V8.93795C5.47245 8.75444 5.39937 8.57905 5.26945 8.44914C5.13954 8.31922 4.96415 8.24614 4.78064 8.24614H0.689858C0.506349 8.24614 0.330961 8.31922 0.201043 8.44914C0.0711255 8.57905 -0.00195312 8.75444 -0.00195312 8.93795V28.9566C-0.00195312 29.1401 0.0711255 29.3155 0.201043 29.4454C0.330961 29.5754 0.506349 29.6468 0.689858 29.6468H4.78064C4.96415 29.6468 5.13954 29.5737 5.26945 29.4454C5.39937 29.3155 5.47245 29.1401 5.47245 28.9566V21.0739H12.9346V28.9566C12.9346 29.1401 13.0077 29.3155 13.1376 29.4454C13.2675 29.5754 13.4429 29.6468 13.6264 29.6468H17.7172C17.9007 29.6468 18.0761 29.5737 18.206 29.4454C18.3359 29.3155 18.409 29.1401 18.409 28.9566V28.955Z" fill="black"/>
</g>
<defs>
<clipPath id="clip0_4415_21137">
<rect width="107.44" height="40" fill="white"/>
</clipPath>
</defs>
</svg>
