<svg width="143" height="30" viewBox="0 0 143 30" fill="none" xmlns="http://www.w3.org/2000/svg">
<path fill-rule="evenodd" clip-rule="evenodd" d="M106.042 17.873C106.042 16.3653 105.112 14.8584 103.323 14.4992V14.4278C104.755 13.9258 105.756 12.5616 105.756 11.1269C105.756 8.68652 103.895 7.39453 100.604 7.39453C98.6726 7.39453 96.6689 7.39454 95.3809 7.46591V22.4667C97.3134 22.4667 98.9588 22.5381 99.8886 22.5381C104.54 22.5381 106.042 20.0255 106.042 17.873ZM102.607 11.5568C102.607 12.9201 101.606 13.71 99.5305 13.71C99.1011 13.71 98.7429 13.71 98.3855 13.71V9.76275C98.886 9.76275 99.4585 9.69137 100.103 9.69137C101.963 9.69137 102.607 10.4805 102.607 11.5568ZM102.894 17.9444C102.894 19.3086 101.892 20.1699 99.9606 20.1699C99.3162 20.1699 98.7437 20.0969 98.3863 20.0969V15.8625C98.6726 15.8625 99.4593 15.8625 99.6744 15.8625C101.606 15.8625 102.894 16.4375 102.894 17.9444Z" fill="black"/>
<path fill-rule="evenodd" clip-rule="evenodd" d="M116.92 22.4657C116.848 21.6036 116.848 20.5266 116.848 19.6669V15.001C116.848 12.6328 115.775 11.1973 112.197 11.1973C110.695 11.1973 109.264 11.4844 108.119 11.8429L108.405 14.2833C109.335 13.709 110.695 13.4219 111.697 13.4219C113.342 13.4219 113.915 13.9961 113.915 15.1446V15.7196C110.051 15.7196 107.403 17.1551 107.403 19.8096C107.403 21.6044 108.548 22.6814 110.622 22.6814C112.34 22.6814 113.7 21.8193 114.272 20.6004C114.2 21.1738 114.129 21.8201 114.129 22.4665H116.92V22.4657ZM113.915 17.872C113.915 19.1632 112.913 20.5266 111.482 20.5266C110.694 20.5266 110.194 20.0959 110.194 19.3781C110.194 18.4454 110.837 17.5849 113.915 17.5849V17.872V17.872Z" fill="black"/>
<path fill-rule="evenodd" clip-rule="evenodd" d="M129.368 22.4657V14.7139C129.368 12.7763 128.58 11.1973 126.005 11.1973C124.145 11.1973 122.856 12.13 122.142 13.4219C122.285 12.7763 122.285 11.915 122.285 11.4122H119.566V22.4657H122.428V17.1543C122.428 15.2159 123.645 13.5655 125.075 13.5655C126.148 13.5655 126.507 14.2832 126.507 15.4308V22.4657H129.368Z" fill="black"/>
<path fill-rule="evenodd" clip-rule="evenodd" d="M142.105 22.4667L137.884 16.5089L141.819 11.4132H138.242L134.949 16.0068V6.24609H132.088V22.4667H134.949V17.0109L138.456 22.4667H142.105Z" fill="black"/>
<path fill-rule="evenodd" clip-rule="evenodd" d="M49.3006 14.7138C49.3006 9.47456 46.0809 7.17773 41.8585 7.17773C37.4227 7.17773 33.8447 10.2637 33.8447 15.1445C33.8447 19.8825 36.2777 22.7528 41.2868 22.7528C45.7227 22.7528 49.3006 19.6668 49.3006 14.7138ZM45.3653 15.0009C45.3653 18.374 43.2905 19.5938 41.5011 19.5938C38.925 19.5938 37.7801 17.8006 37.7801 14.8574C37.7801 11.7714 39.6406 10.3359 41.5723 10.3359C44.0061 10.3359 45.3653 11.915 45.3653 15.0009Z" fill="black"/>
<path fill-rule="evenodd" clip-rule="evenodd" d="M62.3944 22.1082L61.9651 19.0223C61.1783 19.3094 59.9614 19.5243 59.1027 19.5243C56.1692 19.5243 54.8812 17.8738 54.8812 14.9306C54.8812 12.2031 56.3123 10.4813 58.9596 10.4813C59.9614 10.4813 60.9633 10.6249 61.8931 10.912L62.3225 7.75381C61.3206 7.46671 60.1045 7.39453 59.0316 7.39453C53.6651 7.39453 50.8027 10.6241 50.8027 15.5048C50.8027 18.9501 52.4482 22.6824 58.3871 22.6824C59.7472 22.6832 61.1784 22.4675 62.3944 22.1082Z" fill="black"/>
<path fill-rule="evenodd" clip-rule="evenodd" d="M76.6322 17.8017C76.6322 16.294 75.6312 14.8584 73.9849 14.4992V14.4278C75.4169 13.8536 76.3467 12.5616 76.3467 11.1983C76.3467 8.68569 74.2719 7.39453 70.7651 7.39453C68.7615 7.39453 66.3293 7.39454 64.8262 7.46591V22.4667C67.1872 22.4667 68.9766 22.5381 69.9784 22.5381C74.7005 22.5381 76.6322 20.1699 76.6322 17.8017ZM72.4114 11.7003C72.4114 12.8487 71.4815 13.4951 69.6922 13.4951C69.2628 13.4951 68.9054 13.4951 68.6192 13.4951V10.1934C69.0486 10.1934 69.5491 10.1934 70.1215 10.1934C71.6958 10.1934 72.4114 10.7676 72.4114 11.7003ZM72.6257 17.873C72.6257 19.0215 71.6958 19.7392 70.0496 19.7392C69.4771 19.7392 68.9046 19.6679 68.6184 19.6679V16.0782C68.9046 16.0782 69.6202 16.0782 69.8345 16.0782C71.5527 16.0782 72.6257 16.6533 72.6257 17.873Z" fill="black"/>
<path fill-rule="evenodd" clip-rule="evenodd" d="M89.7997 22.1082L89.3704 19.0223C88.5828 19.3094 87.3667 19.5243 86.58 19.5243C83.6465 19.5243 82.3584 17.8738 82.3584 14.9306C82.3584 12.2031 83.7896 10.4813 86.3649 10.4813C87.3667 10.4813 88.3694 10.6249 89.2984 10.912L89.7278 7.75381C88.7268 7.46671 87.5818 7.39453 86.4369 7.39453C81.0704 7.39453 78.208 10.6241 78.208 15.5048C78.208 18.9501 79.8535 22.6824 85.7924 22.6824C87.2244 22.6832 88.6548 22.4675 89.7997 22.1082Z" fill="black"/>
<path fill-rule="evenodd" clip-rule="evenodd" d="M9.15871 10.2636L2.93351 6.10138C3.93533 4.73804 5.15143 3.51744 6.58261 2.58476L11.9491 8.11111C10.8761 8.61314 9.8743 9.33089 9.15871 10.2636ZM7.51328 14.2109L0.429358 11.4834C0.85871 9.76074 1.50233 8.18248 2.433 6.74696L8.80134 10.6942C8.08575 11.6991 7.65639 12.9197 7.51328 14.2109ZM16.0284 17.4412L8.37198 14.4988C8.58625 13.3504 9.08757 12.202 9.80316 11.2693L16.0284 15.2166V17.4412V17.4412ZM16.0284 14.8573L10.0894 10.91C10.805 10.0487 11.7348 9.40309 12.8086 8.97244L16.0284 12.202V14.8573ZM0.858703 19.953C0.286232 18.3739 0 16.7234 0 15.0008C0 13.9959 0.0711577 13.0633 0.286238 12.1298L7.51328 14.7137C7.51328 14.7851 7.51328 14.8573 7.51328 15.0008C7.51328 16.7234 8.08574 18.3739 9.15871 19.6667H9.23068C8.58625 18.5183 8.22886 17.2255 8.22886 15.8621C8.22886 15.575 8.22886 15.2887 8.30001 15.0008L16.0284 17.7275V19.953H0.858703ZM1.36003 21.3171C1.28806 21.0292 1.14495 20.7421 1.00264 20.455H5.51043L6.29798 21.3171H12.9525L11.5214 22.8232H3.29252C3.07663 22.0349 2.28989 21.3885 1.36003 21.3171ZM18.3894 21.6748C18.8899 21.3877 19.3912 21.0284 19.8206 20.6707C20.1068 20.455 20.393 20.1687 20.6081 19.8816C21.7531 18.5174 22.4687 16.867 22.4687 15C22.4687 10.8378 19.1058 7.46391 14.9554 7.46391C14.0967 7.46391 13.238 7.60746 12.5224 7.89457L7.299 2.08111C9.51773 0.789139 12.165 0 14.9554 0C23.2554 0 29.91 6.67479 29.91 15C29.91 23.2539 23.2554 30 14.9554 30C10.8769 30 7.15588 28.3495 4.43664 25.6221H22.7549L22.898 25.4793L3.57874 24.6886L3.43564 24.5458H23.8998L23.971 24.4015L2.57692 23.3974L2.50497 23.3244H10.8058C10.805 23.326 15.0265 23.4696 18.3894 21.6748Z" fill="black"/>
</svg>
