<svg width="38" height="50" viewBox="0 0 38 50" fill="none" xmlns="http://www.w3.org/2000/svg">
<path d="M37.367 43.2411C37.367 44.8589 36.6314 45.7414 35.4545 46.3297C30.4526 48.2417 24.4209 49.2713 18.6835 49.2713C12.946 49.2713 6.91436 48.2417 1.91248 46.3297C0.588456 45.8885 0 44.8589 0 43.2411V0H37.5141" fill="black"/>
<path fill-rule="evenodd" clip-rule="evenodd" d="M33.8368 34.5635H33.5426C33.5426 32.6515 31.7772 32.0632 29.8648 32.0632H23.9802C24.1273 32.9457 24.2744 34.1223 24.1273 35.1518H23.8331C23.2446 30.7395 20.8908 28.6804 17.3601 26.3271V28.2391H17.0658C16.1831 26.18 14.1236 24.268 12.2111 22.9443C11.7697 22.6502 11.1813 22.2089 10.5928 21.7677V23.9739H10.4457C9.56302 21.9148 8.09188 20.444 6.03228 18.532C3.82557 16.4729 2.79577 15.2962 2.35443 13.8255C2.0602 12.943 1.91309 12.3547 1.91309 11.3251C1.91309 9.70727 2.79577 8.23648 3.82557 7.64817V8.38356C3.23711 9.26603 3.09 10.0014 3.09 10.8839C3.09 11.7664 3.23711 12.6488 3.67845 13.3842C5.00248 15.7375 9.26879 18.8261 11.9168 20.5911C12.4336 20.9355 12.9252 21.2626 13.3932 21.574L13.3939 21.5745C20.5184 26.3148 22.1493 27.4 23.3917 30.2982C23.5388 30.5924 23.686 31.0336 23.8331 31.622C25.0099 31.4749 29.4226 30.7396 30.3059 30.5924L30.3061 30.5924C30.4532 30.5924 30.7474 30.5924 30.8945 30.4453C31.6301 30.0041 32.2186 29.4158 32.807 28.5333L29.5705 28.2391C29.4234 28.6804 29.2763 28.9745 29.1292 29.1216H28.835C28.9176 28.9564 28.9538 28.7913 28.9957 28.6L28.9957 28.6C29.0285 28.4507 29.0647 28.2855 29.1292 28.0921H28.2465V27.945L29.1292 27.7979C29.2763 26.9154 29.4234 26.033 29.4234 25.1505L25.3042 24.8563V26.033H25.01C24.8629 25.5917 24.8629 25.1505 24.8629 24.8563H23.9802V24.5622H24.8629C24.7158 23.5326 24.7158 22.5031 24.7158 21.6206L22.3619 21.4735C22.5091 21.6206 22.6562 21.9148 22.6562 22.0619C23.0975 23.5326 23.0975 25.1505 22.9504 25.8859H22.6562C22.6562 25.0034 22.3619 23.8268 22.0677 23.2385C21.4793 21.6206 19.861 20.2969 17.5072 18.6791V20.5911H17.2129C16.3303 17.9437 14.2707 16.4729 11.3284 15.0021C8.68033 14.2667 7.79765 12.6488 7.94476 10.2956L8.82745 10.7368C8.97456 12.943 10.7399 14.2667 12.6524 14.2667C13.6822 14.2667 14.712 14.1196 15.7418 13.9725C17.0658 13.6784 18.3899 13.3842 19.5668 13.8255V12.5018H18.6841C18.3899 12.7959 17.8014 13.0901 16.9187 13.0901C15.8889 13.0901 13.9764 12.5018 13.9764 10.4427C13.9764 8.67772 15.4476 8.38356 16.7716 8.38356H18.9783C19.2725 8.38356 19.4197 8.38356 19.5668 8.23648C19.7139 8.0894 19.7139 7.94232 19.7139 7.79525V5.58907H13.8293V7.94232L11.7697 6.91278V6.32446H12.7995V5.44199H8.82745V3.52997H7.50342C6.76785 3.52997 6.03228 3.97121 5.88516 5.00076C5.88516 5.88323 6.17939 6.7657 7.20919 6.7657H7.35631V7.94232H7.20919C5.59094 7.94232 4.26691 6.61862 4.26691 5.00076C4.26691 3.23582 5.73805 1.91211 7.50342 1.91211H10.2986V3.82413H21.3321V8.0894C21.3321 8.38356 21.185 8.97187 20.5966 9.41311C20.4049 9.50891 20.1508 9.54231 19.753 9.59461L19.753 9.59461C19.5401 9.6226 19.286 9.65599 18.9783 9.70727H16.9187C15.5947 9.56019 15.3005 10.1485 15.3005 10.5897V10.8839C15.8889 10.4427 16.7716 10.1485 17.6543 10.4427C19.2725 11.031 19.861 11.031 20.5966 10.2956L20.7437 10.4427C20.5966 10.5897 20.4495 10.7368 20.3023 11.031H21.0379V15.4433L23.5388 13.9725H30.6003C30.6003 13.9725 33.5426 15.5904 34.1311 15.7375C34.5724 16.0316 34.7195 16.1787 34.8666 16.62C34.8666 16.9141 34.8666 17.3553 34.7195 17.6495C34.6214 17.7476 34.2618 18.3685 33.9022 18.9895L33.9022 18.9896L33.9022 18.9896L33.9021 18.9897L33.902 18.9899C33.7223 19.3003 33.5425 19.6106 33.3955 19.8557C34.5724 21.1794 35.4551 22.9443 35.4551 25.0034C35.4551 26.7684 34.7195 29.1216 32.5128 30.8866C33.5426 31.1807 34.1311 31.769 34.5724 32.3573L33.8368 34.5635ZM9.85735 26.3269C4.70836 23.0911 2.94299 21.6204 2.79587 19.5613C2.79587 19.12 2.79587 18.3846 3.0901 17.9434L2.64876 17.6492C2.20742 18.2376 2.0603 19.12 2.0603 19.8554C2.0603 21.032 2.50164 22.0616 2.94299 22.797C3.67856 23.9736 4.41413 24.5619 6.32661 26.0327C8.38621 27.5035 9.71023 29.4155 10.5929 31.1805H10.8871V29.1214C13.6823 30.7392 16.0361 32.21 17.2131 34.7103H17.5073C16.9188 31.7688 15.4477 29.7097 9.85735 26.3269ZM16.037 11.4722C16.6254 10.8838 17.0668 10.8838 18.0966 11.0309C17.9494 11.3251 17.5081 11.6192 17.0668 11.6192C16.6254 11.6192 16.3312 11.6192 16.037 11.4722ZM17.508 17.3552L20.3031 15.7374C19.7147 15.4432 19.1262 15.2961 18.3906 15.2961C17.5988 15.2961 16.459 15.557 15.6402 15.7444L15.6401 15.7445L15.6399 15.7445C15.3939 15.8008 15.1769 15.8505 15.007 15.8844C15.4484 16.0315 16.6253 16.7669 17.508 17.3552ZM30.4543 16.9138L30.013 17.5021C29.1303 17.2079 28.2476 17.2079 27.8063 17.355C25.4524 17.355 23.0986 18.6787 21.7746 20.5907C21.039 19.8553 20.1563 19.1199 19.2737 18.5316L24.2755 15.443H30.4543L33.2495 16.9138L32.2197 18.6787C31.9255 18.3846 31.6312 18.2375 31.337 18.0904L31.337 18.0904L31.6312 16.9138L30.013 16.0313L29.8659 16.1784L30.4543 16.9138ZM29.4234 24.5613C29.4234 23.6789 29.2763 22.7964 29.1292 22.061L25.8927 21.9139C25.5985 22.9435 25.4514 23.826 25.4514 24.8555L29.4234 24.5613ZM30.6011 24.5619C30.7482 23.8265 30.7482 23.0911 30.6011 22.2086L33.2491 22.3557C33.5434 22.944 33.6905 23.6794 33.8376 24.4148L30.6011 24.5619ZM28.8345 21.032C28.5403 19.8553 28.0989 18.9729 27.8047 18.6787H26.6278C26.4807 19.1199 26.3336 19.5243 26.1865 19.9287L26.1864 19.9289C26.0393 20.3333 25.8922 20.7378 25.7451 21.179L28.8345 21.032ZM30.381 20.736C30.2546 20.2096 30.1113 19.6136 29.8648 19.1207C30.7475 19.4149 31.6302 20.1503 32.5129 20.8857L30.4533 21.0327C30.4294 20.9373 30.4056 20.838 30.3811 20.7361L30.381 20.736ZM33.3958 27.5037C33.6901 26.9154 33.8372 26.3271 33.8372 25.7387L30.4536 25.5917C30.3064 26.4741 30.0122 27.3566 29.718 28.092L33.3958 27.5037ZM22.5094 21.4733C23.2449 20.4437 23.9805 19.7083 25.1574 19.2671C25.0103 19.5613 24.8632 20.2966 24.8632 21.3262L22.5094 21.4733Z" fill="#F2F2F2"/>
<path fill-rule="evenodd" clip-rule="evenodd" d="M32.8068 37.505C32.8068 37.505 32.6597 37.0638 32.0712 36.7696C32.0369 36.7525 32.0007 36.7333 31.9619 36.7129C31.6682 36.558 31.2328 36.3284 30.453 36.3284C28.6876 36.3284 27.5107 37.3579 27.5107 40.1524C27.6578 43.2411 29.7174 43.8294 31.0414 43.8294C32.8068 43.8294 33.5424 43.094 33.5424 43.094V44.1235C33.5424 44.1235 32.6597 44.8589 30.453 44.8589C27.952 44.8589 25.304 43.9765 25.304 40.1524C25.304 36.7696 27.5107 35.2988 30.6001 35.2988C32.5126 35.2988 33.3953 35.8871 33.3953 35.8871L32.9539 37.505H32.8068ZM13.2408 44.8587H10.5927L7.50333 40.5934H6.76776V44.7116H4.56105V37.5048C4.56105 36.7694 4.41393 36.1811 4.11971 35.8869C3.97259 35.7398 3.67836 35.5928 3.53125 35.5928V35.4457H8.68024C11.1812 35.4457 12.211 36.3282 12.211 37.946C12.211 39.2697 11.1812 40.0051 9.85715 40.4464L13.2408 44.8587ZM22.6567 37.5048C22.6567 38.6814 21.6269 39.4168 20.7443 39.5639C22.0683 39.711 23.3923 40.2993 23.3923 42.0642C23.3923 43.9762 21.6269 44.8587 19.4202 44.8587H15.301V37.3577C15.301 36.7694 15.1539 36.1811 14.8597 35.8869C14.7126 35.7398 14.4184 35.5928 14.2712 35.5928V35.4457H19.2731C22.2154 35.4457 22.6567 36.4752 22.6567 37.5048ZM20.4492 37.6522C20.4492 36.6227 19.7137 36.3285 18.6839 36.3285C18.0954 36.3285 17.507 36.3285 17.507 36.1814V39.123H18.3896C19.4194 39.123 20.4492 38.8288 20.4492 37.6522ZM18.831 43.9764H17.507V40.1524H18.831C20.5964 40.1524 21.1848 40.7407 21.1848 41.9173C21.1848 43.3881 20.3021 43.9764 18.831 43.9764ZM6.76697 36.3283H8.23811C9.41502 36.3283 10.1506 36.6224 10.1506 37.9461C10.1506 39.1228 9.26791 39.7111 7.94388 39.7111H6.76697V36.3283Z" fill="white"/>
</svg>
