<svg width="165" height="16" viewBox="0 0 165 16" fill="none" xmlns="http://www.w3.org/2000/svg">
<g clip-path="url(#clip0_4415_20948)">
<path d="M9.66913 0.269531L3.91016 15.6541H26.4599L32.1815 0.269531H9.66913V0.269531ZM22.2716 10.8849H12.2494L16.1386 6.61569L13.8201 5.0003H23.9544L19.9904 9.30799L22.2716 10.8849Z" fill="black"/>
<path d="M36.4067 12.5772L50.2058 3.80799H39.6975L41.0064 0.269531H58.1711C58.5451 0.269531 58.8443 0.577224 58.8443 0.961839C58.8443 1.03876 58.8443 1.11569 58.8069 1.19261L58.0215 3.30799L44.1851 12.0772H55.89L54.5811 15.6157H36.2571C35.8832 15.6157 35.584 15.308 35.584 14.9234C35.584 14.8465 35.584 14.7695 35.6214 14.6926L36.4067 12.5772Z" fill="black"/>
<path d="M57.6113 8.88462C57.6113 4.30769 63.0337 0 69.8024 0C76.0475 0 79.9367 3 79.9367 7.11538C79.9367 11.6923 74.5143 16 67.7456 16C61.5005 16 57.6113 13 57.6113 8.88462ZM74.0655 7.23077C74.0655 5 72.2331 3.73077 69.5032 3.73077C65.8384 3.73077 63.4451 6.61538 63.4451 8.76923C63.4451 10.9231 65.2775 12.2692 68.0074 12.2692C71.6722 12.2692 74.0655 9.38462 74.0655 7.23077Z" fill="black"/>
<path d="M81.6191 8.88462C81.6191 4.30769 87.0415 0 93.8102 0C100.055 0 103.945 3 103.945 7.11538C103.945 11.6923 98.5221 16 91.7534 16C85.5083 16 81.6191 13 81.6191 8.88462ZM98.1107 7.23077C98.1107 5 96.2409 3.73077 93.5484 3.73077C89.8836 3.73077 87.4903 6.61538 87.4903 8.76923C87.4903 10.9231 89.3227 12.2692 92.0526 12.2692C95.7174 12.2692 98.1107 9.38462 98.1107 7.23077Z" fill="black"/>
<path d="M139.808 8.88462C139.808 4.30769 145.23 0 151.999 0C158.244 0 162.133 3 162.133 7.11538C162.133 11.6923 156.711 16 149.942 16C143.697 16 139.808 13 139.808 8.88462ZM156.262 7.23077C156.262 5 154.392 3.73077 151.7 3.73077C148.035 3.73077 145.641 6.61538 145.641 8.76923C145.641 10.9231 147.474 12.2692 150.204 12.2692C153.868 12.2692 156.262 9.38462 156.262 7.23077Z" fill="black"/>
<path d="M109.517 0.269456H114.715L114.116 1.88484C115.612 0.923302 117.332 0.000225203 119.688 0.000225203C122.568 0.000225203 124.438 1.07715 125.26 2.76946C127.355 0.923302 130.047 -0.0766979 132.814 0.000225203C136.591 0.000225203 138.91 1.69253 138.91 4.46176C138.91 5.30792 138.536 6.4233 138.199 7.38484L135.17 15.6541H129.187L132.291 7.23099C132.44 6.80792 132.553 6.34638 132.553 5.84638C132.553 4.61561 131.618 3.96176 129.748 3.96176C127.392 3.96176 125.933 5.19253 125.26 7.03869L122.082 15.6541H116.098L119.202 7.23099C119.352 6.80792 119.464 6.30792 119.464 5.84638C119.464 4.61561 118.529 3.96176 116.659 3.96176C114.303 3.96176 112.845 5.19253 112.172 7.03869L108.993 15.6925H103.01L108.432 1.03869C108.582 0.577148 109.031 0.269456 109.517 0.269456Z" fill="black"/>
</g>
<defs>
<clipPath id="clip0_4415_20948">
<rect width="164" height="16" fill="white" transform="translate(0.910156)"/>
</clipPath>
</defs>
</svg>
