<svg width="148" height="26" viewBox="0 0 148 26" fill="none" xmlns="http://www.w3.org/2000/svg">
<path fill-rule="evenodd" clip-rule="evenodd" d="M84.5161 21.8552C79.614 21.8552 76.7807 17.8314 76.7807 13.3169C76.7807 7.03586 80.204 2.17578 86.7323 2.17578C87.8093 2.17578 88.5858 2.27805 89.3206 2.37482C89.9806 2.46174 90.607 2.54423 91.3873 2.54423L90.8954 7.37829C89.9592 5.68514 88.4313 4.53167 86.3877 4.53167C82.3236 4.53167 80.6729 8.90022 80.6729 12.6542C80.6729 16.7269 82.9644 18.9589 86.0178 18.9589C87.6685 18.9589 89.1212 18.5171 91.5607 16.8247C90.5754 19.9664 88.2839 21.8553 84.5161 21.8553V21.8552ZM142.844 4.53087C144.691 4.53087 146.392 5.61097 147.181 7.0351L147.673 2.54423C147.093 2.54423 146.518 2.47155 145.879 2.39076C145.079 2.28963 144.178 2.17578 143.042 2.17578C139.52 2.17578 136.121 3.52494 136.121 7.57475C136.121 10.273 138.09 11.7713 141.195 13.6357C142.672 14.5185 143.88 15.4014 143.88 16.8247C143.88 18.4942 142.402 19.4505 140.406 19.4505C137.822 19.4505 136.072 17.9545 135.135 16.0641L134.816 20.8004C136.762 21.5365 138.486 21.8552 140.136 21.8552C144.152 21.8552 147.625 19.6721 147.625 16.1139C147.625 13.3887 145.506 11.8194 143.462 10.5437C143.278 10.4253 143.095 10.3091 142.913 10.1944C141.253 9.14292 139.791 8.21669 139.791 6.91201C139.791 5.19361 141.22 4.53087 142.844 4.53087ZM128.606 13.7578C128.953 13.0201 129.517 12.0157 129.962 11.2788C130.898 9.70957 135.333 2.76499 136.318 2.54408H131.219C131.415 2.76499 131.489 3.25496 131.489 3.69755C131.489 4.26246 131.243 4.85105 130.948 5.31733C130.008 6.83812 129.24 8.0332 128.309 9.4819L128.305 9.48829C128.065 9.86096 127.815 10.2504 127.548 10.6666C127.006 9.11941 126.094 7.03571 124.865 4.26246C124.076 2.54408 123.73 2.37288 122.45 2.37288C121.734 2.37288 120.256 2.44702 119.099 2.54408C119.764 2.86203 120.825 4.50785 121.734 6.24913C123.162 9.02238 124.1 11.3049 124.79 13.6844C124.838 15.3539 124.468 20.6282 123.558 21.4866H128.705C128.312 21.0937 128.164 19.941 128.164 19.0818C128.164 17.0218 128.312 15.1559 128.606 13.7578ZM112.053 6.98684L109 13.5859H113.975L112.053 6.98684ZM114.985 17.1444C116.292 21.61 116.414 21.6581 118.04 21.6581C118.558 21.6581 119.961 21.61 120.948 21.4869C119.766 20.5299 118.878 18.077 117.474 13.0464L116.662 10.0523C116.292 8.72836 114.618 2.54438 114.618 2.54438H110.48C110.627 2.88837 110.725 3.2308 110.725 3.60002C110.725 4.11445 109.494 6.81433 108.239 9.46447L106.906 12.2859C105.923 14.3956 104.911 16.4327 104.025 18.0525C102.597 19.0095 101.808 19.0829 98.6561 19.0829C97.7682 19.0829 97.4236 18.8865 97.4236 18.0288C97.4236 16.7754 97.5345 15.5002 97.6448 14.2325C97.6986 13.6139 97.7522 12.997 97.7927 12.3853L97.8917 11.1837C98.2355 6.15239 98.5072 3.11084 99.247 2.54597H94.0486C94.3932 2.91362 94.5168 3.7239 94.5413 4.99965C94.5674 6.54447 94.4177 8.75282 94.2205 11.6239L94.1468 12.8255C93.7777 17.8568 93.5314 20.6293 92.7671 21.4877H106.217C106.118 21.1437 106.094 20.8747 106.094 20.6293C106.094 19.7484 106.649 18.5494 107.164 17.4383C107.253 17.2468 107.34 17.058 107.424 16.8738L107.818 16.0398H110.084C112.325 16.0398 113.731 15.8678 114.518 15.5001L114.985 17.1444ZM66.0421 4.90003C66.4841 4.85111 67.052 4.85111 67.5201 4.85111C69.3181 4.85111 70.3525 5.70951 70.3525 7.18331C70.3525 9.34118 68.7256 10.7661 66.3621 10.7661C66.0658 10.7661 65.7466 10.7408 65.4987 10.6911L65.5977 9.36484C65.7704 7.10838 65.894 5.70951 66.0421 4.90003ZM74.3906 22.2972C72.987 22.2972 72.6417 22.0755 72.1743 21.4372L66.8532 14.0761L66.8071 14.0138C66.4101 13.4781 66.0896 13.0457 65.4497 13.0457H65.3261L65.2287 14.469C65.1043 16.4075 65.0307 17.9547 65.0307 19.1074C65.0552 20.3832 65.2033 21.1674 65.5487 21.4869H60.4002C61.1385 20.8242 61.4085 18.6158 61.8283 12.8248L61.9028 11.6231C62.1 8.77728 62.2481 6.56816 62.2228 5.02335C62.1974 3.67339 62.0509 2.83866 61.6802 2.54438H68.7004C70.991 2.54438 74.1442 2.93805 74.1442 6.6423C74.1442 9.68385 72.0991 11.3533 69.5629 12.1375C69.8005 12.3514 70.2208 12.8837 70.4941 13.2299L70.5237 13.2674L74.3906 18.3713C76.8048 21.5366 77.0012 21.6834 77.8646 22.1252C76.7802 22.2475 75.3276 22.2972 74.3906 22.2972ZM47.3202 13.5859L50.4013 6.98684L52.3205 13.5859H47.3202ZM56.3853 21.6583C54.7607 21.6583 54.6372 21.6102 53.3319 17.1446L52.8637 15.5003C52.074 15.868 50.6705 16.04 48.4289 16.04H46.1628L45.7692 16.8739C45.7024 17.0237 45.6193 17.2003 45.5275 17.3953C45.0775 18.3518 44.4181 19.7533 44.4385 20.6295C44.4385 20.8749 44.463 21.1202 44.5621 21.4879H40.0053C41.3106 20.1876 42.9613 17.1698 45.252 12.2868L46.5826 9.46546C47.7889 6.91389 49.0705 4.01835 49.0705 3.60098C49.0705 3.23177 48.9731 2.88934 48.8242 2.54534H52.9635C52.9635 2.54534 54.0455 6.64327 55.0071 10.0532L55.8197 13.0474C57.2241 18.0779 58.1104 20.5309 59.293 21.4879C58.234 21.6102 56.9033 21.6583 56.3853 21.6583ZM31.6043 4.87667C32.0724 4.82696 32.5643 4.82696 32.9342 4.82696C35.1766 4.82696 36.2363 5.70981 36.2363 6.98716C36.2363 9.19395 34.0185 10.0279 31.6043 10.0279H31.112C31.1175 9.9822 31.1861 8.87521 31.1861 8.87521C31.2835 7.4771 31.4071 6.20134 31.6043 4.87667ZM31.1116 10.0279C31.1116 10.0298 31.1118 10.0298 31.112 10.0279H31.1116ZM32.3191 12.3346H30.9646L30.7674 15.1316C30.6692 16.3592 30.6193 17.3888 30.5947 18.6157C30.5947 18.7885 31.1365 19.1561 32.4165 19.1561C35.0771 19.1561 36.8267 17.8314 36.8267 15.6467C36.8267 13.2175 34.8307 12.3346 32.3191 12.3346ZM25.9639 21.4869H32.6149C37.6889 21.4869 40.7922 18.8857 40.793 15.598C40.793 12.5557 38.576 11.1332 35.62 10.8389C37.7134 10.2976 40.0049 8.77648 40.0049 6.32279C40.0049 2.643 36.4572 2.54438 34.6838 2.54438H27.2447C27.6145 2.83866 27.7626 3.69785 27.7872 5.02335C27.8117 6.56816 27.6644 8.77651 27.4664 11.6476L27.3927 12.8248C27.0236 17.8797 26.8019 20.75 25.9639 21.4869Z" fill="black"/>
<path d="M10.776 0.00159406C10.1153 0.00159406 9.97875 0.117164 9.76435 0.357071C9.67631 0.351784 9.58812 0.349391 9.49993 0.349897C8.99173 0.349897 8.33901 0.424818 7.78237 0.798627C7.24479 1.1549 6.9891 1.78535 7.27575 2.24683C7.27575 2.24683 7.46792 1.96389 8.09999 1.96389C8.18893 1.96389 8.28739 1.97345 8.39221 1.98222C9.26568 2.08583 9.91205 2.54732 9.83344 3.76598C9.76356 4.98384 9.30856 6.34199 7.44727 6.35793C7.44727 6.35793 7.20746 6.35793 6.95178 6.33402C6.08545 6.23917 5.81309 5.6932 5.81309 5.6932C5.81309 5.6932 6.56189 5.48916 6.56824 4.53511C6.56189 3.88633 5.9989 3.29254 5.18657 3.05263C4.90604 2.97313 4.6157 2.93395 4.32422 2.93627C3.36657 2.93627 2.29141 3.33877 1.56643 4.28883C-0.0772856 6.46712 -0.210689 9.6425 0.190314 12.5955C0.593699 15.5549 2.46372 18.2959 2.51851 18.3708C2.55822 18.4234 2.59395 18.4521 2.63445 18.4521C2.65847 18.4506 2.68122 18.4407 2.69876 18.4242C3.50633 17.6375 4.27657 16.5623 4.60611 15.8434C4.95867 16.1256 4.77445 16.7257 4.5807 17.3665C4.39648 18.0217 3.94862 18.8913 3.78663 19.1718C3.6302 19.446 3.42057 19.7648 3.70246 19.9314C3.73554 19.9503 3.77319 19.9597 3.81125 19.9585C4.17334 19.9585 5.02537 19.3248 5.97587 18.0528C7.03992 16.6213 7.57988 15.3508 7.57988 15.3508C7.6577 15.3684 7.78793 15.5007 7.76649 15.8609C7.75219 16.2268 7.37739 17.5881 6.64765 18.8554C5.90996 20.1219 5.22866 20.9141 5.09128 21.0943C5.00632 21.1987 5.07858 21.264 5.13337 21.3063C5.18736 21.3429 6.49201 22.5656 8.38744 23.5985C10.6331 24.7997 11.6288 25.0157 11.6288 25.0157C11.6288 25.0157 12.6222 24.8052 14.8678 23.6049C16.7624 22.5704 18.0727 21.3421 18.1211 21.3007C18.1759 21.2632 18.2458 21.2043 18.1632 21.0895C18.0337 20.9173 17.3501 20.1211 16.614 18.8546C15.8866 17.5961 15.4975 16.226 15.4919 15.8649C15.4769 15.5007 15.5991 15.3803 15.6738 15.35C15.6738 15.35 16.2193 16.6285 17.2834 18.052C18.2386 19.3256 19.0827 19.9577 19.4464 19.9577C19.4857 19.959 19.5247 19.9496 19.5591 19.9306C19.8323 19.764 19.629 19.4404 19.4686 19.1694C19.3193 18.8905 18.8651 18.0265 18.6722 17.3657C18.4872 16.7178 18.295 16.1184 18.6539 15.8426C18.9842 16.5615 19.7489 17.6423 20.5589 18.4178C20.5766 18.4381 20.6019 18.4502 20.6287 18.4513C20.6645 18.4513 20.7026 18.4234 20.7359 18.3748C20.7955 18.2951 22.6687 15.5589 23.0689 12.5947C23.4707 9.63533 23.3381 6.46712 21.6928 4.28803C20.9726 3.33558 19.8895 2.93069 18.9255 2.93069C18.6245 2.93069 18.3371 2.96974 18.0742 3.04546C17.2556 3.29254 16.6949 3.89191 16.6997 4.53432C16.6997 5.48837 17.4525 5.69241 17.4525 5.69241C17.4525 5.69241 17.2008 6.22482 16.3035 6.33322C16.1423 6.35326 15.98 6.36338 15.8175 6.36351C15.1426 6.36351 14.574 6.14831 14.0499 5.40547C13.5417 4.69054 13.5584 3.21842 13.529 2.72745C13.506 2.2293 13.3996 1.11186 12.8779 0.655958C12.3578 0.1881 11.7241 0.0310843 10.934 0C10.876 0.00159406 10.8244 0.00159406 10.776 0.00159406" fill="black"/>
</svg>
