<svg width="84" height="58" viewBox="0 0 84 58" fill="none" xmlns="http://www.w3.org/2000/svg">
<path d="M9.62223 56.4692C9.62223 56.4924 9.4947 57.9415 7.89486 57.9415H2.85189C2.81711 57.9415 0 57.8835 0 54.081V50.3712C0 49.4438 0.672396 47.6816 3.21127 47.6816C5.78493 47.6816 9.30921 47.7164 9.34399 47.7164H9.40196V50.0814H4.15031C4.10394 50.0814 2.85189 50.1046 2.85189 51.4378V54.4172C2.85189 54.452 2.991 55.4258 4.18509 55.4258H6.3298C6.34139 55.4258 6.64281 55.3678 6.64281 54.7766C6.64281 54.0114 6.61963 53.4318 6.61963 53.3506C6.59644 53.2927 6.44573 52.9101 6.01679 52.7942L5.9936 52.7826L5.98201 52.7594C5.90086 52.5739 5.92404 52.4812 5.93564 52.4696L5.94723 52.4348H9.34399C9.36718 52.4348 9.63382 52.4812 9.61063 52.9449C9.59904 53.3622 9.62223 56.4344 9.62223 56.4692Z" fill="#222222"/>
<path d="M83.2267 50.105H83.1571C82.5659 50.1282 81.8819 50.1281 81.1515 50.1281C79.9691 50.1281 78.9721 50.105 78.7286 50.105V57.9187H76.0158V50.0702H69.6165V51.5425C69.6165 51.5541 69.6281 51.9135 70.2889 51.9135H72.7118V53.8843H70.312C70.2889 53.8843 69.6512 53.8959 69.6512 54.3828C69.6512 54.8001 69.6628 57.8607 69.6628 57.8607V57.9187L66.9385 57.8723V48.992C66.9385 48.6095 67.0892 47.7168 68.434 47.7168H81.0588C81.9399 47.7168 82.8905 48.7254 83.2383 50.0238L83.2267 50.105Z" fill="#222222"/>
<path d="M45.6883 55.4146V57.9303H38.4659C37.863 57.9303 37.4225 57.7796 37.1558 57.4665C36.8312 57.0956 36.9008 56.6434 36.9008 56.6203V49.2703C36.9008 47.9139 38.1412 47.7168 38.1644 47.7168H45.6767L45.6188 49.989H45.5608C45.5608 49.989 43.3002 49.989 41.7003 49.989C40.7729 49.989 40.2512 49.989 40.1584 49.989H40.1353C39.9729 49.989 39.8454 50.0354 39.7643 50.1281C39.6252 50.2789 39.6367 50.4875 39.6367 50.4875V51.2759C39.6367 51.7512 40.1237 51.7628 40.1468 51.7628L45.0739 51.7512V53.9075H40.1584C39.5672 53.9423 39.5556 54.406 39.5556 54.4292V54.8929C39.5556 55.3798 40.0773 55.4146 40.1005 55.4146H45.6883Z" fill="#222222"/>
<path d="M55.3217 57.8029V57.9188H48.4006C48.4006 57.9188 48.3543 57.9304 48.2963 57.9304C48.0644 57.9304 47.2877 57.8492 47.2877 56.8059C47.2877 55.6118 47.2529 47.8676 47.2529 47.7865V47.7285H50.0816V54.9162C50.0816 54.9394 50.1048 55.4611 50.6149 55.4611H53.9769L53.9885 55.5074C53.9885 55.5306 54.487 57.8029 55.3217 57.8029Z" fill="#222222"/>
<path d="M35.278 49.3397C35.278 50.8468 35.2548 57.8258 35.2548 57.8954V57.9533H32.4261L32.4377 51.5772L29.0873 57.7447C29.0757 57.7562 28.925 57.9997 28.7279 57.9997C28.612 57.9997 28.5424 57.907 28.4149 57.7215C28.2062 57.3389 25.6674 52.8292 25.1109 51.8322V57.8954L22.1895 57.9186L22.2358 49.1658C22.2358 49.1542 22.259 47.7051 23.5111 47.7051H24.7747H24.7863C24.879 47.7051 25.2152 47.7399 25.5051 48.25C25.6906 48.5514 28.4497 52.7712 28.4729 52.8176C28.5308 52.9335 28.6352 53.0495 28.6816 53.0495C28.7279 53.0495 28.867 52.9219 28.9714 52.8176L31.8117 48.2615C31.8233 48.2384 32.1131 47.7283 32.5536 47.7167H34.1071C34.1187 47.7167 35.278 47.7746 35.278 49.3397Z" fill="#222222"/>
<path d="M62.4056 47.7285H58.0582C57.3162 47.7285 55.2295 48.2502 55.2295 50.592V54.8351C55.2295 54.8698 55.5193 57.9652 57.7452 57.9652C61.3042 57.9652 62.6606 57.8956 62.6838 57.8956C62.707 57.8956 65.3502 57.4435 65.3502 54.7075V50.6384C65.3386 50.6152 65.0488 47.7285 62.4056 47.7285ZM61.1072 55.519C60.4348 55.519 59.0088 55.4959 58.9972 55.4959H58.9625C58.8697 55.4959 58.6378 55.4843 58.4292 55.322C58.1509 55.1133 58.0118 54.7539 58.0118 54.2554C58.0118 52.7019 58.0814 51.0441 58.0814 51.0209C58.0814 51.0209 58.0582 50.6152 58.3248 50.3254C58.5103 50.1167 58.8001 50.0239 59.1827 50.0239L61.4665 50.0355C61.5129 50.0355 62.5563 50.0819 62.5563 51.2412C62.5563 52.4701 62.4751 54.2554 62.4751 54.2786V54.2902V54.3018C62.4751 54.3018 62.5447 54.7655 62.2549 55.1249C62.023 55.3915 61.6404 55.519 61.1072 55.519Z" fill="#222222"/>
<path d="M21.2735 57.8489C21.1228 57.4779 17.6217 48.6788 17.3551 48.1803C17.1116 47.7281 16.6131 47.6934 16.474 47.6934H16.4276H14.8626C13.9931 47.6934 13.8887 48.2266 13.8771 48.3078L10.2021 57.9764L13.2511 57.9416L13.9467 55.7969C14.3177 55.7969 17.0652 55.8085 17.4362 55.8085C17.7956 56.8982 18.0738 57.8721 18.0738 57.8836L18.0854 57.93H21.2967L21.2735 57.8489ZM14.6307 53.5942L15.6625 50.6264L16.6363 53.5942H14.6307Z" fill="#222222"/>
<path d="M52.0292 42.7324C51.9133 42.7324 51.8438 42.7324 51.8438 42.7324C51.8438 42.7324 51.9133 42.744 52.0292 42.7324Z" fill="#060101"/>
<path d="M70.9145 18.2822C70.9145 18.2822 71.0421 14.1899 70.5783 11.5699C70.0335 8.47451 68.4452 5.77334 67.8772 5.05457C67.3671 4.40536 66.1962 2.46932 62.4748 1.24046C59.5534 0.278233 56.0291 0.278233 53.1076 0.173896C50.1862 0.0695583 37.7121 0 37.7121 0C37.7121 0 28.8782 0.0579653 25.2148 0.243454C19.4182 0.521687 17.9691 0.64921 15.3491 1.76214C12.7291 2.87507 10.9321 5.4951 10.3641 7.63982C9.78442 9.77294 9.98151 13.39 9.98151 13.39L10.0974 28.5537C10.0974 28.5537 10.0047 30.9186 10.3061 33.3648C10.7235 36.5297 11.2683 37.9324 11.8248 38.7787C12.2653 39.4511 13.2276 40.8075 15.0013 41.6538C16.2881 42.2682 20.137 42.361 22.0151 42.3726C25.1568 42.5001 33.7936 42.8247 36.0659 42.8363C40.1466 42.8479 43.8796 42.7899 46.9285 42.7204C48.8298 42.7204 51.4382 42.7204 53.1308 42.6972C52.6439 42.7204 52.2497 42.732 52.0411 42.732C52.6439 42.732 54.6147 42.7088 55.8668 42.5928C57.3507 42.4537 59.4374 41.6886 60.5388 40.8191C61.6401 39.9496 62.6719 38.7787 63.7848 36.6804C64.5616 35.1965 64.8166 31.0578 64.8166 31.0578L64.8514 24.983C64.8514 24.983 64.7818 21.7601 64.4108 20.1371C64.0399 18.5257 63.4023 17.1925 61.8952 15.5579C60.562 14.0971 58.5795 13.4479 56.8522 13.1465C55.1248 12.8451 49.9659 12.9031 49.9659 12.9031L37.1672 12.8219L28.3913 12.9958C28.3913 12.9958 26.2697 12.9726 24.6583 13.1581C23.0469 13.332 22.4324 13.9117 22.0035 14.2363C21.5746 14.5609 20.763 15.2449 20.4384 16.3694C20.0906 17.5751 20.1718 20.4501 20.1718 20.4501C20.1718 20.4501 20.3109 25.354 20.3341 26.0612C20.3573 26.7683 20.763 26.6872 20.763 26.6872C20.763 26.6872 23.5917 27.0234 23.7193 27.0118C23.8468 27.0002 23.7656 27.1161 23.812 27.0002C23.812 26.9886 23.8236 26.9654 23.8352 26.9538C23.8468 26.9538 23.8584 26.9538 23.8584 26.9538C23.8584 26.9538 24.496 25.2612 26.4668 25.1453C28.4376 25.0294 50.1282 24.6932 51.902 24.6584C53.6757 24.6236 54.0814 25.1685 54.2785 25.5858C54.4756 26.0148 54.5452 27.4407 54.5452 27.4407L54.5104 30.0492C54.5104 30.0492 54.2437 31.5331 53.5018 32.1127C52.8874 32.588 52.8874 32.7619 51.5426 32.8083C50.1978 32.8547 25.2495 32.588 25.2495 32.588C25.2495 32.588 22.3977 32.6808 21.2036 31.1621C20.0095 29.6318 18.885 28.7276 18.8386 24.6584C18.827 21.8529 18.8618 15.2217 18.8618 15.2217C18.8618 15.2217 18.7343 12.1727 20.8442 10.1787C22.5947 8.50929 26.4436 8.72956 26.4436 8.72956C26.4436 8.72956 35.6253 8.72956 38.7902 8.64841C41.9551 8.56726 57.7564 9.03098 58.568 9.06576C59.3679 9.11213 61.1184 9.19328 63.2515 11.4307C63.9935 12.2307 65.2108 14.271 65.489 16.1375C65.7672 18.004 66.1382 24.67 66.1382 24.67C66.1382 24.67 66.1382 24.6932 66.1382 24.7511C66.1498 25.5279 66.2657 31.7881 65.6629 34.1531C65.0137 36.6804 64.2833 38.7208 62.4516 40.5293C62.0343 40.9466 61.6401 41.364 61.6401 41.364C61.6401 41.364 61.6401 41.3756 61.6285 41.3872C61.5937 41.4567 61.5242 41.6538 61.6285 41.7466C61.6285 41.7466 61.6401 41.7581 61.6517 41.7581C61.872 42.2798 62.8806 42.6392 62.9617 42.6624C63.0661 42.6972 64.0747 42.5349 64.7934 42.0827C67.7149 40.1699 68.4336 39.1845 69.4654 36.634C70.9609 33.4807 71.0073 29.5275 71.0073 28.9594C70.9725 28.3798 70.9145 18.2822 70.9145 18.2822Z" fill="#222222"/>
</svg>
