<svg width="88" height="36" viewBox="0 0 88 36" fill="none" xmlns="http://www.w3.org/2000/svg">
<path fill-rule="evenodd" clip-rule="evenodd" d="M10.7666 24.2117V0.691606H7.74758V23.1909C7.74758 27.6291 6.59437 32.5103 0.692383 32.6885V35.3066C6.77134 35.2176 10.7666 31.1356 10.7666 24.2117Z" fill="black"/>
<path fill-rule="evenodd" clip-rule="evenodd" d="M57.4913 0.690654H54.5168L46.885 21.2375L42.5359 10.2316L46.1748 0.690654H43.2004L41.0709 6.46022L38.7634 0.690654H35.5674L39.5181 10.5867L35.5674 21.2375L27.4469 0.690654H24.251L34.6802 26.7422H36.2776L41.0264 14.2702L45.9967 26.7422H47.5941L57.4913 0.690654Z" fill="black"/>
<path fill-rule="evenodd" clip-rule="evenodd" d="M86.3505 3.31156V0.693397H66.7354V3.31156H75.034V26.7227H78.0518V3.31156H86.3505Z" fill="black"/>
</svg>
