<svg width="84" height="38" viewBox="0 0 84 38" fill="none" xmlns="http://www.w3.org/2000/svg">
<g clip-path="url(#clip0_4415_21133)">
<path d="M82.9692 13.8605C82.0173 10.3075 80.3624 7.3682 77.4782 4.617L77.4231 4.5638L59.2002 17.8809L63.6462 24.1965L75.0899 15.8384C75.2381 16.1386 75.2989 16.511 75.316 16.5965C76.1425 20.824 74.4952 25.2035 71.0562 27.7172C69.9101 28.5616 68.6054 29.1662 67.2202 29.4946C65.835 29.823 64.3977 29.8686 62.9945 29.6286C61.5843 29.3904 60.236 28.8726 59.0287 28.1059C57.8214 27.3391 56.7796 26.3387 55.9645 25.1636C52.4951 20.2141 53.618 13.3076 58.4668 9.7641C60.3882 8.34971 62.7305 7.62473 65.1149 7.7064V0H19.8265V7.7216H27.3163L20.6226 25.2206L10.6286 0H0V37.3312H7.7387V12.8991L17.2843 37.3312H23.8887L33.4343 12.5837V37.3312H41.4314V7.7216H49.2879C49.2366 7.7976 48.9668 8.2118 48.8832 8.3448C44.8457 14.7858 44.7982 23.3586 49.4152 29.944C52.3507 34.1259 56.7036 36.8923 61.6778 37.734C64.1253 38.156 66.6329 38.0783 69.0495 37.5056C71.4662 36.9328 73.7419 35.8769 75.7397 34.4014C82.2263 29.6419 84.9414 21.2249 82.9692 13.8605Z" fill="black"/>
</g>
<defs>
<clipPath id="clip0_4415_21133">
<rect width="83.6" height="38" fill="white"/>
</clipPath>
</defs>
</svg>
