<svg width="86" height="36" viewBox="0 0 86 36" fill="none" xmlns="http://www.w3.org/2000/svg">
<path fill-rule="evenodd" clip-rule="evenodd" d="M52.2925 35.5H33.6166V0.5H52.2925V35.5ZM30.3608 31.7976L21.9404 5.62635C20.7452 1.6276 18.7257 0.5001 15.6392 0.5001H0C1.22887 1.00135 2.04563 4.17635 2.04563 4.17635L9.59443 30.4626C10.4635 33.7613 13.1864 35.5001 16.2754 35.5001H32.8534C31.6643 35.2839 30.3608 31.7976 30.3608 31.7976ZM55.5452 31.7976L63.9706 5.62635C65.1621 1.6276 67.1803 0.5001 70.2681 0.5001H85.9097C84.6784 1.00135 83.8666 4.17635 83.8666 4.17635L76.3141 30.4626C75.4438 33.7613 72.7208 35.5001 69.6356 35.5001H53.0564C54.2429 35.2839 55.5452 31.7976 55.5452 31.7976Z" fill="black"/>
</svg>
